<svg xmlns="http://www.w3.org/2000/svg" viewBox="0 0 300 100">
  <g fill="none" fill-rule="evenodd">
    <path fill="#847CCE" d="M131 17h149v59H131z"/>
    <rect width="5" height="15" x="152" y="43" fill="#ABA6DD" rx="2"/>
    <rect width="5" height="15" x="162" y="40" fill="#ABA6DD" rx="2"/>
    <rect width="5" height="15" x="173" y="39" fill="#ABA6DD" rx="2"/>
    <rect width="5" height="15" x="184" y="35" fill="#ABA6DD" rx="2"/>
    <rect width="5" height="15" x="195" y="43" fill="#ABA6DD" rx="2"/>
    <rect width="5" height="15" x="205" y="39" fill="#ABA6DD" rx="2"/>
    <rect width="5" height="15" x="215" y="43" fill="#ABA6DD" rx="2"/>
    <rect width="5" height="23" x="226" y="43" fill="#ABA6DD" rx="2"/>
    <rect width="5" height="17" x="236" y="43" fill="#ABA6DD" rx="2"/>
    <rect width="5" height="20" x="247" y="43" fill="#ABA6DD" rx="2"/>
    <rect width="5" height="28" x="258" y="43" fill="#ABA6DD" rx="2"/>
    <rect width="5" height="28" x="268.5" y="25" fill="#ABA6DD" rx="2"/>
    <path fill="#9A93D7" d="M138.5 45h136.367c.276 0 .5-.224.5-.5s-.224-.5-.5-.5H138.5c-.276 0-.5.224-.5.5s.224.5.5.5z"/>
    <rect width="79" height="79" x="20" y="4" fill="#5D579E" rx="6"/>
    <rect width="79" height="79" x="20" fill="#847CCE" rx="6"/>
    <rect width="63" height="9" x="29" y="60" fill="#FFF" opacity=".32" rx="2"/>
    <path fill="#FFF" d="M74 60H31.007C29.89 60 29 60.894 29 61.997v5.006c0 1.1.9 1.997 2.007 1.997H74v-9zm199.5-15.113V25.8c0-1.107-.898-2.007-2.005-2.007h-.99c-1.11 0-2.005.898-2.005 2.007v19.087h5zm-10.5.207v-9.087c0-1.107-.898-2.007-2.005-2.007h-.99c-1.11 0-2.005.898-2.005 2.007v9.087h5zm-11 0V33.007c0-1.107-.898-2.007-2.005-2.007h-.99c-1.11 0-2.005.898-2.005 2.007v12.087h5zm-11 0V27.007c0-1.107-.898-2.007-2.005-2.007h-.99c-1.11 0-2.005.898-2.005 2.007v18.087h5zm-10 0v-7.087c0-1.107-.898-2.007-2.005-2.007h-.99c-1.11 0-2.005.898-2.005 2.007v7.087h5zm-11 0v-7.087c0-1.107-.898-2.007-2.005-2.007h-.99c-1.11 0-2.005.898-2.005 2.007v7.087h5zm-10 0V26.007c0-1.107-.898-2.007-2.005-2.007h-.99c-1.11 0-2.005.898-2.005 2.007v19.087h5zm-10 0v-9.087c0-1.107-.898-2.007-2.005-2.007h-.99c-1.11 0-2.005.898-2.005 2.007v9.087h5zm-33 0v-9.087c0-1.107-.898-2.007-2.005-2.007h-.99c-1.11 0-2.005.898-2.005 2.007v9.087h5zm22 0V33.007c0-1.107-.898-2.007-2.005-2.007h-.99c-1.11 0-2.005.898-2.005 2.007v12.087h5zm-11 0V27.007c0-1.107-.898-2.007-2.005-2.007h-.99c-1.11 0-2.005.898-2.005 2.007v18.087h5zm-21 0v-7.087c0-1.107-.898-2.007-2.005-2.007h-.99c-1.11 0-2.005.898-2.005 2.007v7.087h5z"/>
    <path fill="#FFF" d="M46.698 16.47c-.03 0-.054-.004-.072-.01-.096-.024-.163-.06-.203-.113-.04-.05-.064-.09-.076-.12-.048-.133-.035-.27.04-.41.076-.142.17-.29.284-.446.04-.04.07-.09.1-.15l.09-.15c.01 0 .02-.02.03-.03-.03.01-.08.03-.13.06s-.11.06-.17.11c-.1.07-.22.16-.34.26l-.37.33-.09.09-.09.09c-.05.05-.11.07-.19.07-.07 0-.13-.03-.18-.09-.05-.05-.07-.12-.07-.19.01-.08.04-.14.09-.18.03-.03.06-.06.1-.08l.1-.09.43-.37c.14-.11.28-.21.42-.3.14-.08.27-.14.41-.18.14-.04.27-.04.39 0 .11.03.18.08.22.13.04.05.07.1.08.14.06.14.05.28-.03.43-.08.14-.18.3-.3.48-.01.01-.02.03-.04.06-.01.03-.03.05-.05.07.09-.03.21-.08.35-.13.14-.05.32-.12.53-.2.08-.02.15-.02.22.01.07.04.11.09.14.16.03.07.03.13 0 .2s-.08.12-.15.15l-.53.18c-.15.06-.28.1-.39.15l-.15.06-.12.04c-.05.01-.08.02-.11.03-.02.01-.05.02-.08.02zm3.33.27c-.072 0-.132-.022-.18-.064-.096-.078-.123-.177-.08-.297 0-.01.02-.08.066-.22s.098-.3.158-.47l.08-.27.064-.21-.432.16-.517.19-.563.21-.558.2c-.066.02-.133.02-.203-.02s-.118-.09-.148-.16c-.024-.07-.02-.14.013-.21.034-.07.086-.12.158-.15.27-.1.55-.2.84-.31l.798-.3.6-.23.237-.09c.03-.01.06-.01.09-.02s.06 0 .09.01c.09.01.15.06.18.15.03.05.05.11.04.18 0 .07-.02.18-.05.32-.01.08-.04.16-.06.25-.03.09-.06.2-.1.32l-.02.06-.01.06c.24-.13.53-.27.88-.42.07-.03.13-.03.2 0s.12.07.15.14c.04.06.04.13.01.21-.03.07-.08.12-.14.15-.2.09-.39.18-.57.26l-.45.22c-.15.08-.28.15-.4.22-.03.03-.08.04-.13.04zm2.583.53c-.03 0-.06-.002-.09-.005s-.06-.007-.09-.013c-.07-.024-.13-.075-.18-.153-.02-.04-.03-.08-.03-.14 0-.05 0-.13.02-.23s.06-.24.11-.42.12-.41.21-.69c-.14.05-.29.1-.46.17-.17.07-.34.13-.52.2-.07.02-.13.02-.2-.02s-.12-.09-.15-.16c-.02-.07-.02-.14.02-.21.03-.07.08-.12.16-.15l.56-.21.48-.18c.14-.05.25-.1.33-.13l.13-.05c.06-.03.12-.03.17-.01.08.02.14.06.17.13.03.06.04.1.04.15l-.03.13-.03.07c0 .03-.01.06-.02.1-.04.1-.09.22-.13.37-.04.14-.09.29-.14.44-.03.09-.05.16-.07.22-.02.06-.03.12-.05.16.12-.03.28-.09.5-.21.19-.1.39-.22.6-.35.21-.14.43-.28.66-.44l.15-.09c.05-.03.1-.06.15-.1.07-.04.13-.05.21-.04.08.02.14.06.18.12.05.07.06.13.04.2-.01.06-.05.12-.12.16-.05.04-.09.07-.15.1l-.15.1c-.23.15-.45.3-.67.43-.21.14-.42.26-.61.36-.39.21-.7.31-.93.31zm7.47-.018c-.04 0-.09-.003-.13-.01-.04-.005-.08-.014-.12-.026-.11-.03-.18-.093-.22-.19-.05-.12-.05-.264.01-.436.06-.17.15-.39.29-.66.03-.05.05-.103.07-.163.03-.06.05-.117.08-.17-.07.03-.16.078-.24.148l-.26.21c-.06.05-.12.067-.2.055-.07-.012-.13-.045-.18-.1-.04-.06-.06-.125-.05-.197.02-.072.05-.135.1-.19.09-.06.17-.125.26-.197.09-.072.19-.132.29-.18.25-.126.47-.16.68-.1.1.02.17.08.22.18.05.103.05.223 0 .36-.05.14-.13.334-.25.586l-.09.216-.09.207c-.01.024-.02.045-.03.063l-.02.054c.06-.006.14-.024.23-.054.1-.03.2-.076.33-.14.13-.063.27-.148.43-.256.16-.108.35-.243.56-.405.16-.132.32-.26.46-.387.14-.126.27-.24.38-.342l.27-.252.1-.1c.07-.083.16-.11.26-.08.05.012.09.033.12.063s.06.06.07.09c.05.08.05.18.01.29-.03.11-.1.29-.2.53l-.1.23-.09.21c0 .03-.01.06-.02.1.09-.02.18-.05.27-.1.1-.06.19-.12.29-.18.1-.07.19-.14.27-.21.09-.08.16-.14.23-.2.06-.06.13-.08.2-.07.07 0 .13.03.19.09.05.06.07.12.07.19s-.03.13-.09.19c-.14.12-.28.24-.42.35-.14.11-.29.21-.43.29-.14.08-.29.14-.44.17-.15.03-.3.03-.44 0-.1-.04-.16-.1-.21-.18-.03-.09-.04-.18-.03-.28.02-.1.05-.23.11-.38l-.2.17c-.07.05-.15.11-.22.18-.83.65-1.48.98-1.94.98zm6.12-.513c-.07 0-.13-.03-.18-.07-.09-.08-.12-.18-.08-.3 0-.01.03-.08.07-.22l.16-.47.08-.27.07-.21-.43.16-.51.19-.56.21-.55.2c-.07.02-.13.02-.2-.01-.07-.04-.12-.09-.15-.16-.02-.07-.02-.13.02-.2s.09-.12.16-.15c.27-.1.55-.2.84-.31l.8-.3.6-.23.24-.09c.03 0 .06-.01.09-.01s.05 0 .08.01c.09.01.15.06.18.14.03.05.04.11.04.18s-.02.18-.05.32c-.02.08-.04.16-.07.25-.03.1-.06.2-.1.32l-.02.07-.02.06c.24-.13.54-.27.88-.41.07-.03.14-.03.2-.01.07.03.12.07.15.14.04.07.04.13.01.21-.03.07-.08.12-.14.15-.2.09-.39.18-.56.26-.18.08-.33.16-.45.22-.15.08-.29.15-.41.22-.03.03-.08.05-.13.05zm7.02-.27c-.03 0-.05-.01-.07-.01-.09-.03-.16-.06-.2-.12-.04-.05-.06-.09-.07-.12-.04-.14-.03-.27.04-.41.08-.14.17-.29.29-.45.04-.05.07-.1.1-.16s.06-.11.09-.16l.03-.04c-.03.01-.08.03-.13.05s-.11.06-.17.1c-.11.07-.22.15-.34.26-.12.1-.24.21-.37.32l-.09.09-.09.08c-.05.05-.12.07-.19.07-.07-.01-.14-.04-.18-.1-.05-.05-.08-.12-.07-.19.01-.08.04-.14.09-.19.03-.03.06-.06.1-.08l.09-.09c.15-.13.29-.26.43-.38s.28-.22.42-.3c.14-.09.27-.15.4-.19.14-.04.27-.04.39-.01.11.03.18.07.22.12.04.05.07.1.08.14.06.13.05.28-.03.42-.07.14-.17.3-.29.47-.01.01-.03.03-.04.06l-.05.08c.09-.03.2-.08.35-.13.14-.05.32-.12.53-.2.08-.02.15-.02.22.01s.11.08.14.16c.03.06.03.13-.01.2-.03.07-.08.12-.15.15-.19.06-.36.12-.52.18-.16.05-.29.1-.4.14l-.15.06-.12.04c-.05.01-.09.02-.12.03-.03.01-.05.01-.08.01zm-39.55 8c-.03 0-.05-.01-.07-.01-.09-.03-.16-.06-.2-.12-.04-.05-.06-.09-.07-.12-.05-.14-.03-.27.04-.41.08-.14.17-.29.29-.45.04-.05.07-.1.1-.16s.06-.11.09-.16l.03-.04c-.04.01-.08.03-.13.05s-.11.06-.17.1c-.11.07-.22.15-.34.26-.12.1-.24.21-.36.32l-.09.09-.09.08c-.05.05-.12.07-.19.07-.08-.01-.14-.04-.19-.1-.05-.05-.08-.12-.07-.19.01-.08.04-.14.09-.19.03-.03.06-.06.1-.09l.09-.09c.15-.13.29-.26.43-.38s.28-.22.42-.3c.14-.09.27-.15.41-.19.14-.04.27-.04.39-.01.1.03.18.07.22.13.04.05.07.1.08.14.06.14.04.28-.03.42-.08.14-.17.3-.29.48-.01.01-.03.03-.04.06l-.05.07c.09-.04.21-.08.35-.13.15-.06.32-.12.53-.21.08-.03.15-.02.22.01s.11.08.13.16c.03.06.03.13 0 .2s-.08.12-.15.15l-.52.18c-.16.05-.29.1-.4.14-.06.03-.11.05-.16.06l-.12.04c-.05.01-.08.02-.11.03-.03.01-.05.02-.09.02zm2 .78c-.05 0-.09-.01-.13-.01l-.12-.03c-.11-.03-.18-.1-.22-.19-.05-.12-.05-.27.01-.44.06-.17.15-.39.29-.66.03-.05.05-.11.07-.17.03-.06.05-.12.08-.17-.08.03-.16.08-.24.14l-.26.21c-.06.04-.13.06-.2.05-.07-.02-.13-.05-.18-.1-.05-.06-.06-.13-.05-.2.01-.08.05-.14.1-.19.09-.06.17-.13.26-.2s.19-.13.29-.18c.25-.13.47-.16.68-.1.1.02.17.08.22.18.05.1.05.22 0 .36-.05.14-.14.33-.26.58l-.09.21-.09.2-.03.06-.01.05c.06-.01.14-.03.23-.06s.2-.08.32-.14c.12-.07.27-.15.43-.26.16-.11.35-.24.56-.4.17-.14.32-.26.46-.39.15-.13.27-.24.38-.35l.26-.26.1-.1c.07-.08.16-.11.26-.08.05.01.09.03.12.06s.06.06.07.09c.05.08.05.18.01.29-.03.11-.1.29-.19.53-.04.08-.07.15-.1.23-.03.08-.06.15-.09.21 0 .03-.01.07-.02.1.08-.01.17-.04.27-.1.1-.05.19-.11.29-.18.09-.06.18-.13.27-.21.08-.07.16-.14.22-.19.06-.06.13-.08.2-.07.07 0 .13.03.19.09.05.06.07.12.07.19s-.03.13-.09.19c-.14.12-.28.24-.42.35-.14.11-.29.21-.44.29-.14.08-.29.14-.44.17-.15.03-.29.03-.44 0-.1-.03-.16-.09-.21-.18-.04-.08-.05-.17-.03-.27.02-.1.05-.23.11-.38l-.2.17-.22.18c-.83.65-1.48.98-1.94.98zm4.79 0c-.05 0-.09-.01-.13-.01l-.12-.03c-.11-.03-.18-.1-.22-.19-.05-.12-.05-.27.01-.44.06-.17.15-.39.29-.66.03-.05.05-.11.08-.17.03-.06.05-.12.08-.17-.08.03-.16.08-.25.14l-.26.21c-.06.04-.12.06-.2.05-.07-.02-.13-.05-.18-.1-.05-.06-.06-.13-.05-.2.01-.08.05-.14.1-.19.09-.06.17-.13.26-.2s.19-.13.29-.18c.25-.13.47-.16.68-.1.09.02.17.08.21.18.05.1.05.22 0 .36-.05.14-.14.33-.26.58l-.09.21-.09.2-.02.06c-.01.02-.01.04-.02.05.06-.01.14-.03.23-.06s.2-.08.33-.14c.13-.07.27-.15.43-.26.16-.11.35-.24.56-.4.16-.14.31-.26.46-.39.14-.13.27-.24.38-.35.11-.11.2-.19.26-.26l.1-.1c.08-.08.16-.11.26-.08.05.01.09.03.12.06s.06.06.07.09c.04.08.05.18.01.29-.04.11-.1.29-.2.53-.04.08-.07.15-.1.23l-.1.21-.03.1c.08-.01.17-.04.27-.1.09-.05.19-.11.29-.18.1-.06.19-.13.27-.21.09-.07.16-.14.23-.19.06-.06.13-.08.2-.07.08 0 .14.03.19.09.05.06.07.12.07.19s-.03.13-.09.19c-.14.12-.28.24-.42.35-.14.11-.29.21-.44.29-.15.08-.3.14-.45.17-.15.03-.3.03-.44 0-.1-.03-.17-.09-.21-.18-.03-.08-.04-.17-.03-.27s.05-.23.1-.38c-.06.06-.13.11-.2.17-.07.05-.14.11-.22.18-.83.65-1.47.98-1.93.98zm6.12-.52c-.07 0-.13-.02-.18-.07-.09-.08-.12-.18-.08-.3 0-.01.02-.08.07-.22l.16-.47.08-.27c.03-.08.05-.15.07-.21l-.43.16-.51.19-.56.21-.55.2c-.06.02-.13.02-.2-.02-.07-.03-.11-.09-.14-.16-.03-.07-.02-.13.01-.2s.09-.12.16-.15l.85-.31.79-.3.6-.23.24-.09c.03-.01.06-.01.09-.01.02-.01.05 0 .08.01.09.01.15.06.18.14.03.05.05.11.04.18 0 .07-.01.18-.04.32-.02.07-.04.16-.06.25-.03.09-.06.2-.1.32 0 .02-.01.04-.01.06-.01.02-.01.04-.02.06.24-.13.54-.27.88-.41.07-.03.13-.03.2-.01.07.02.12.07.15.14.04.06.04.13.01.2s-.08.12-.14.15c-.2.09-.39.18-.57.26l-.45.23c-.15.07-.28.15-.4.21-.03.03-.08.04-.13.04zm2.65-.27c-.03 0-.05-.01-.07-.01-.09-.03-.16-.06-.2-.12-.04-.05-.06-.09-.08-.12-.04-.14-.03-.27.04-.41.08-.14.17-.29.29-.45.04-.05.07-.1.1-.16s.06-.11.09-.16l.03-.04c-.03.01-.08.03-.13.05s-.11.06-.17.11c-.1.06-.22.15-.34.25-.12.1-.24.21-.37.33-.03.03-.06.06-.09.08-.03.03-.07.06-.1.09-.05.04-.12.07-.19.06-.07 0-.13-.03-.18-.09-.05-.06-.08-.12-.07-.2.01-.08.04-.14.09-.18.03-.03.06-.06.1-.09.04-.03.07-.06.1-.09.15-.13.29-.26.43-.38s.28-.22.42-.3c.14-.09.27-.15.41-.19.14-.04.27-.04.4-.01.1.03.17.07.22.13.04.05.07.1.08.14.06.14.04.28-.03.42-.08.15-.17.31-.29.48-.01.01-.03.03-.04.06-.02.03-.03.06-.05.08.09-.03.21-.08.35-.13.14-.05.31-.12.52-.2.08-.03.15-.02.22.01s.11.08.14.16c.03.07.03.13 0 .2s-.08.12-.15.15l-.52.18c-.16.06-.29.1-.4.15l-.16.06-.12.04c-.05.01-.08.02-.11.03-.02.01-.05.01-.08.01zm3.33.27c-.07 0-.13-.02-.18-.07-.09-.08-.12-.18-.08-.3 0-.01.02-.08.07-.22l.16-.47.08-.27c.03-.08.05-.15.07-.21l-.43.16-.52.19c-.18.07-.37.14-.56.21l-.56.21c-.06.02-.13.02-.2-.02s-.12-.09-.15-.16c-.02-.07-.02-.13.02-.2s.09-.12.16-.15l.85-.31.8-.3.6-.22.24-.09c.03-.01.06-.01.09-.01.03-.01.06 0 .09.01.09.01.14.06.18.14.03.05.04.11.04.18 0 .07-.02.18-.05.32-.02.07-.04.16-.07.25-.02.09-.06.2-.1.32l-.02.06-.01.06c.24-.13.54-.27.89-.41.06-.03.13-.04.19-.01.07.03.12.08.15.14.04.07.04.14.01.21-.03.07-.08.12-.15.15-.21.09-.39.18-.57.26-.17.09-.32.16-.45.23-.15.08-.28.15-.4.22-.04.03-.08.04-.14.04zm2.65-.27c-.03 0-.05-.01-.07-.01-.09-.03-.16-.06-.2-.12-.04-.05-.06-.09-.07-.12-.04-.14-.03-.27.04-.41.08-.14.17-.29.29-.45.04-.05.07-.1.1-.16s.06-.11.09-.16l.03-.04c-.03.01-.08.03-.13.05s-.11.06-.17.11c-.1.06-.22.15-.34.25-.12.1-.24.21-.37.33-.03.03-.06.06-.09.08-.04.03-.07.06-.1.09-.05.04-.11.07-.19.06-.07 0-.13-.03-.18-.09-.05-.06-.08-.12-.07-.2.01-.08.04-.14.1-.18l.09-.09c.04-.03.07-.06.1-.09.15-.13.29-.26.43-.38s.28-.22.42-.3c.14-.09.27-.15.41-.19.14-.04.27-.04.4-.01.1.03.17.07.21.13.05.05.07.1.08.14.06.14.05.28-.03.42-.08.15-.18.31-.3.48-.01.01-.02.03-.04.06l-.05.08c.09-.03.21-.08.35-.13.14-.05.32-.12.53-.2.08-.03.15-.02.22.01s.11.08.14.16c.03.07.03.13 0 .2s-.08.12-.14.15l-.52.18-.39.15-.16.06-.12.04c-.05.01-.09.02-.11.03-.02.01-.05.01-.08.01h-.01zm8.81.18c-.04 0-.08-.01-.11-.02-.11-.03-.19-.09-.24-.21-.03-.1-.02-.22.03-.34.06-.13.14-.27.24-.43l.11-.17.09-.16c.02-.03.04-.06.05-.09-.18-.03-.39-.04-.62-.03-.24.01-.51.06-.8.14-.27.06-.54.15-.84.26-.29.1-.61.22-.94.37-.07.03-.13.03-.2 0-.06-.03-.11-.08-.14-.14-.04-.07-.04-.14-.01-.21.03-.08.08-.13.15-.16.34-.15.67-.28.97-.4.3-.11.59-.2.87-.27.74-.19 1.34-.22 1.81-.09.14.03.24.12.29.25.06.14.04.29-.03.45-.08.16-.17.33-.28.5-.01.01-.02.03-.03.05l-.03.06c.14-.03.34-.09.61-.18.27-.09.64-.22 1.12-.4.07-.03.14-.02.21.01.07.03.11.08.14.15.03.07.03.13 0 .2s-.09.12-.17.15l-.75.26c-.23.08-.43.14-.61.2-.25.07-.43.12-.55.14-.12.03-.22.04-.28.04zm4.2.09c-.07 0-.13-.02-.18-.07-.09-.08-.12-.18-.08-.3 0-.01.03-.08.07-.22l.16-.47c.03-.1.06-.19.09-.27l.06-.21-.43.16-.52.19-.56.21-.56.21c-.06.02-.13.02-.2-.02-.07-.03-.12-.09-.15-.16-.02-.07-.02-.13.02-.2s.09-.12.16-.15c.27-.1.55-.2.84-.31l.8-.3.6-.22.24-.09c.03-.01.06-.01.09-.01.03-.01.06 0 .09.01.09.01.15.06.18.14.03.05.05.11.04.18 0 .07-.02.18-.05.32-.02.07-.04.16-.06.25s-.06.2-.1.32c0 .02-.01.04-.01.06l-.02.06c.24-.13.54-.27.89-.41.07-.03.13-.04.2-.01s.11.08.14.14c.04.07.04.14.01.21-.03.07-.08.12-.14.15-.2.09-.39.18-.56.26l-.45.23c-.15.08-.28.15-.4.22-.04.03-.08.04-.14.04zm2.17.51c-.05 0-.09-.01-.13-.01l-.12-.03c-.11-.03-.18-.1-.22-.19-.05-.12-.05-.27.01-.44.06-.17.15-.39.29-.66.03-.05.05-.11.07-.17.03-.06.05-.12.08-.17-.08.03-.16.08-.24.14l-.26.21c-.06.05-.13.06-.2.05-.07-.02-.13-.05-.18-.1-.05-.06-.07-.13-.06-.2.01-.07.05-.14.1-.19.09-.06.17-.13.26-.2s.19-.13.29-.18c.25-.13.47-.16.68-.1.1.02.17.08.22.18.05.1.05.22 0 .36-.05.14-.14.33-.26.58l-.09.21-.09.21c-.01.02-.02.04-.02.06l-.01.05c.06-.01.14-.03.23-.06s.2-.08.33-.14c.13-.07.27-.15.43-.26.17-.11.35-.25.56-.41.16-.13.32-.26.46-.39.15-.13.27-.24.38-.34.11-.1.2-.19.26-.25l.1-.1c.07-.09.16-.11.26-.08.05.01.09.03.12.06s.06.06.07.09c.04.08.05.18.01.29-.04.11-.1.29-.2.53-.03.08-.07.15-.1.23l-.1.22-.03.1c.08-.02.17-.05.27-.1l.29-.18c.1-.07.18-.14.27-.21.08-.08.16-.14.22-.19.07-.06.13-.08.2-.07.08 0 .14.03.19.09.05.06.07.12.07.2 0 .07-.03.13-.09.19-.14.12-.28.24-.42.35-.14.11-.29.2-.43.29-.15.08-.3.14-.45.17-.15.03-.3.03-.44-.01-.1-.04-.17-.1-.21-.18-.04-.08-.05-.17-.03-.27.02-.1.05-.23.11-.38-.06.06-.13.11-.2.17-.07.05-.14.11-.22.18-.83.65-1.47.98-1.93.98zm4.79 0c-.04 0-.09-.01-.13-.01l-.12-.03c-.11-.03-.18-.1-.22-.19-.05-.12-.05-.27.01-.44.06-.17.15-.39.29-.66l.07-.17c.03-.06.05-.12.08-.17-.08.03-.16.08-.24.14l-.26.21c-.06.05-.13.06-.2.05-.07-.02-.14-.05-.18-.1-.05-.06-.07-.13-.05-.2.01-.07.05-.14.1-.19.09-.06.17-.13.26-.2s.19-.13.29-.18c.25-.13.47-.16.67-.1.1.02.17.08.22.18.05.1.05.22 0 .36-.05.14-.14.33-.26.58-.03.07-.06.14-.1.21l-.09.21-.02.06c0 .01-.01.03-.02.05.06-.01.14-.03.23-.06s.2-.08.33-.14c.12-.07.26-.15.42-.26.16-.11.35-.25.56-.41.16-.13.31-.26.46-.39.15-.13.27-.24.38-.34.11-.1.2-.19.26-.25l.1-.1c.07-.09.16-.11.26-.08.05.01.09.03.12.06s.05.06.07.09c.04.08.05.18.01.29-.04.11-.1.29-.2.53-.04.08-.07.15-.11.23l-.09.22c0 .03-.01.06-.02.1.08-.02.17-.05.27-.1.09-.06.19-.12.28-.18.1-.07.19-.14.27-.21.09-.08.16-.14.23-.19.06-.06.13-.08.2-.07.07 0 .14.03.19.09.05.06.07.12.07.2 0 .07-.03.13-.09.19-.14.12-.28.24-.42.35-.15.11-.29.2-.44.29-.15.08-.29.14-.44.17-.15.03-.3.03-.44-.01-.1-.04-.17-.1-.21-.18-.04-.08-.05-.17-.03-.27s.05-.23.107-.38c-.067.06-.13.11-.2.17l-.22.18c-.83.65-1.47.98-1.937.98zm5.21.01c-.03 0-.06 0-.09-.01l-.1-.02c-.07-.03-.13-.08-.18-.16-.02-.04-.03-.08-.03-.14 0-.05 0-.13.02-.23s.06-.24.11-.42.12-.41.21-.69c-.14.05-.29.1-.46.17l-.52.2c-.06.02-.13.02-.2-.02s-.11-.09-.14-.16c-.02-.07-.02-.14.01-.21.04-.07.09-.12.16-.15l.56-.21.48-.18c.14-.05.25-.09.33-.13l.13-.05c.06-.03.12-.03.17-.01.08.01.14.06.18.13.03.06.04.11.03.15l-.04.14c-.01.02-.02.05-.02.07l-.03.1c-.04.1-.08.22-.13.37s-.09.29-.14.44l-.07.22-.04.16c.12-.02.28-.09.5-.21.19-.1.39-.22.6-.35.21-.13.43-.28.66-.43l.15-.09c.05-.03.1-.06.14-.1.07-.04.14-.06.21-.04.07.01.13.05.18.12.04.07.06.13.04.2s-.05.13-.12.17c-.05.04-.1.07-.15.11l-.16.11-.66.43c-.21.14-.42.26-.61.36-.39.2-.7.31-.93.31zm3.1-.02c-.05 0-.09-.01-.13-.01l-.12-.03c-.11-.03-.18-.1-.22-.19-.05-.12-.05-.27.01-.44.06-.17.15-.39.29-.66l.07-.17c.03-.06.05-.12.08-.17-.08.03-.16.08-.25.15l-.26.21c-.06.05-.13.06-.2.05-.07-.01-.13-.05-.18-.1-.05-.06-.06-.13-.05-.2.01-.07.05-.14.1-.19.09-.06.17-.13.26-.2s.19-.13.29-.18c.24-.13.47-.16.67-.1.1.02.17.08.22.18.05.1.05.22 0 .36-.05.14-.13.33-.25.58l-.09.21-.09.2-.03.06-.01.05c.06-.01.14-.03.23-.06s.2-.08.33-.14c.13-.07.27-.15.43-.26.17-.11.35-.24.56-.4.16-.13.32-.26.46-.39.15-.13.27-.24.38-.34l.26-.26.1-.1c.07-.08.16-.11.26-.08.05.01.09.03.12.06s.05.06.07.09c.04.08.05.18.01.29-.04.12-.1.29-.2.53l-.1.24c-.03.08-.06.15-.09.21 0 .03-.01.06-.02.1.09-.02.17-.05.27-.1l.29-.18c.1-.07.19-.14.27-.22.09-.07.16-.14.23-.19.06-.05.12-.08.2-.07.07 0 .138.03.19.09.05.06.07.12.07.2-.003.07-.034.13-.094.19-.14.12-.28.24-.42.35-.14.11-.29.21-.43.29-.15.08-.3.14-.45.17-.15.03-.29.03-.44-.01-.09-.04-.16-.1-.207-.18-.04-.09-.05-.18-.03-.28.01-.1.047-.23.1-.38-.065.06-.13.11-.2.17-.07.05-.145.11-.22.18-.83.65-1.476.98-1.94.98z" opacity=".654"/>
    <path fill="#FFF" d="M41.023 47.112c-.26.855-.75 1.545-1.463 2.068-.714.523-1.52.784-2.417.784-.898 0-1.704-.26-2.418-.784-.713-.523-1.2-1.213-1.463-2.068-.056-.177-.042-.348.043-.514.085-.166.22-.278.403-.334.176-.057.348-.042.514.042.166.085.277.22.334.403.177.56.503 1.02.98 1.37.478.35 1.013.52 1.607.52.594 0 1.13-.18 1.606-.53.47-.35.8-.81.98-1.38.05-.19.17-.32.34-.41.17-.09.34-.1.52-.04.17.05.3.17.39.33.08.16.1.33.04.51zM35.786 42.5c0 .375-.133.694-.398.96-.265.265-.585.397-.96.397-.374 0-.694-.132-.96-.397-.264-.266-.397-.585-.397-.96s.14-.694.4-.96c.27-.265.59-.397.96-.397.38 0 .7.132.96.397.27.266.4.585.4.96zm5.428 0c0 .375-.132.694-.397.96-.265.265-.585.397-.96.397-.374 0-.694-.132-.96-.397-.264-.266-.397-.585-.397-.96s.133-.694.398-.96c.265-.265.585-.397.96-.397.374 0 .694.132.96.397.264.266.396.585.396.96zm2.715 2.714c0-.92-.19-1.797-.55-2.634-.36-.838-.85-1.56-1.45-2.163-.61-.605-1.33-1.087-2.17-1.448-.84-.36-1.72-.54-2.64-.54-.92 0-1.8.18-2.64.54-.84.36-1.56.84-2.17 1.44-.61.6-1.09 1.32-1.45 2.16-.36.83-.54 1.71-.54 2.63 0 .92.18 1.79.54 2.63.36.83.85 1.56 1.45 2.16.61.6 1.33 1.08 2.16 1.44.84.36 1.71.54 2.63.54.92 0 1.79-.18 2.63-.54.84-.36 1.56-.85 2.16-1.45.6-.61 1.09-1.33 1.45-2.17.36-.84.54-1.72.54-2.64zm1.35 0c0 1.478-.37 2.84-1.09 4.088-.73 1.247-1.72 2.235-2.97 2.963-1.25.728-2.61 1.092-4.09 1.092s-2.84-.364-4.09-1.092c-1.25-.728-2.24-1.716-2.97-2.963-.73-1.248-1.09-2.61-1.09-4.088 0-1.477.36-2.84 1.09-4.087.73-1.248 1.71-2.235 2.96-2.963 1.24-.73 2.61-1.093 4.08-1.093 1.47 0 2.84.37 4.08 1.1 1.24.73 2.23 1.72 2.96 2.97.73 1.25 1.09 2.61 1.09 4.09zm97.31-17.3c-.17.54-.48.974-.93 1.305-.45.33-.96.49-1.53.49s-1.08-.17-1.53-.5c-.45-.33-.76-.77-.93-1.31-.04-.11-.03-.22.02-.33.05-.11.13-.18.25-.21.11-.04.22-.03.32.02s.17.14.21.25c.11.36.32.65.62.87.3.22.64.33 1.01.33s.71-.11 1.01-.33c.3-.22.5-.51.62-.87.03-.12.1-.2.21-.25.11-.06.22-.06.33-.03.11.03.19.1.24.21.05.1.06.21.03.32zM139.28 25c0 .237-.08.44-.25.606-.17.167-.37.25-.604.25-.24 0-.44-.083-.61-.25-.167-.167-.25-.37-.25-.606 0-.237.084-.44.252-.606.17-.167.37-.25.61-.25.234 0 .436.083.604.25.168.167.25.37.25.606zm3.43 0c0 .237-.082.44-.25.606-.17.167-.37.25-.606.25s-.438-.083-.606-.25c-.164-.167-.25-.37-.25-.606 0-.237.086-.44.25-.606.17-.167.37-.25.61-.25s.44.083.605.25c.168.167.25.37.25.606zm1.716 1.714c0-.58-.117-1.135-.345-1.664-.22-.53-.53-.984-.91-1.366-.38-.382-.83-.686-1.36-.914-.53-.228-1.08-.34-1.66-.34-.58 0-1.13.112-1.66.34-.53.228-.98.532-1.36.914-.38.382-.69.837-.92 1.366-.23.53-.34 1.084-.34 1.664 0 .58.12 1.135.35 1.664.23.53.53.985.92 1.366.38.382.84.687 1.37.914.53.228 1.09.342 1.67.342.58 0 1.14-.114 1.67-.342.53-.227.98-.532 1.37-.914.38-.38.69-.837.92-1.366.23-.53.34-1.083.34-1.664zm.854 0c0 .933-.23 1.794-.69 2.582-.46.788-1.084 1.412-1.872 1.87-.784.46-1.644.69-2.58.69s-1.79-.23-2.58-.69c-.786-.458-1.41-1.082-1.87-1.87-.46-.788-.69-1.65-.69-2.582 0-.933.23-1.793.69-2.58.46-.79 1.084-1.413 1.87-1.873.79-.46 1.65-.69 2.584-.69.934 0 1.794.23 2.58.69.79.46 1.414 1.09 1.874 1.88.46.79.69 1.65.69 2.58z" opacity=".746"/>
    <path fill="#FFF" d="M142.594 67.944c.035.112.027.22-.027.325-.054.1-.136.17-.248.21-.12.03-.23.02-.33-.03-.11-.06-.18-.14-.22-.26-.11-.36-.32-.65-.62-.87-.3-.22-.64-.33-1.02-.33s-.72.11-1.02.33c-.3.22-.51.51-.62.87-.04.11-.11.2-.21.25-.11.05-.22.06-.33.02-.12-.04-.2-.11-.25-.21-.06-.11-.07-.22-.03-.33.16-.54.47-.98.92-1.31.45-.33.96-.5 1.52-.5s1.08.16 1.53.49c.45.33.76.76.92 1.3zM139.286 64c0 .237-.084.44-.25.606-.17.167-.37.25-.607.25-.24 0-.44-.083-.61-.25-.17-.167-.25-.37-.25-.606 0-.237.08-.44.25-.606.16-.167.37-.25.6-.25.23 0 .43.083.6.25.16.167.25.37.25.606zm3.428 0c0 .237-.083.44-.25.606-.168.167-.37.25-.607.25-.236 0-.438-.083-.606-.25-.16-.167-.25-.37-.25-.606 0-.237.09-.44.25-.606.17-.167.37-.25.61-.25s.44.083.61.25c.17.167.25.37.25.606zm1.715 1.714c0-.58-.12-1.135-.35-1.664-.23-.53-.53-.984-.92-1.366-.38-.382-.84-.686-1.37-.914-.53-.228-1.09-.34-1.67-.34-.58 0-1.14.112-1.66.34-.53.228-.99.532-1.37.914-.38.382-.69.837-.91 1.366-.23.53-.35 1.084-.35 1.664 0 .58.11 1.135.34 1.664.22.53.53.985.91 1.366.38.382.84.687 1.36.914.53.228 1.08.342 1.66.342.58 0 1.13-.114 1.66-.342.53-.227.98-.532 1.36-.914.38-.38.68-.837.91-1.366.23-.53.34-1.083.34-1.664zm.85 0c0 .933-.23 1.794-.69 2.582-.46.788-1.09 1.412-1.87 1.87-.79.46-1.65.69-2.58.69s-1.8-.23-2.59-.69c-.79-.458-1.41-1.082-1.87-1.87-.46-.788-.69-1.65-.69-2.582 0-.933.23-1.793.69-2.58.46-.79 1.08-1.413 1.87-1.873.79-.46 1.65-.69 2.58-.69.93 0 1.79.23 2.58.69.79.46 1.41 1.09 1.87 1.88.46.79.69 1.65.69 2.58z" opacity=".75"/>
    <path fill="#FFF" d="M89.023 48.745c.057.177.043.348-.042.514-.08.16-.21.27-.39.33-.17.05-.35.04-.52-.04-.17-.09-.28-.22-.34-.41-.17-.57-.5-1.03-.98-1.38-.47-.35-1.01-.53-1.6-.53-.59 0-1.13.17-1.6.52-.48.35-.8.8-.98 1.37-.06.18-.17.31-.33.4-.16.08-.34.1-.51.04-.18-.06-.32-.17-.4-.33-.08-.17-.1-.34-.04-.52.27-.86.75-1.54 1.47-2.07.72-.52 1.52-.78 2.42-.78.9 0 1.7.26 2.42.78s1.21 1.21 1.47 2.07zM83.786 42.5c0 .375-.133.694-.398.96-.265.265-.585.397-.96.397-.374 0-.694-.132-.96-.397-.264-.266-.397-.585-.397-.96s.14-.694.4-.96c.27-.265.59-.397.96-.397.38 0 .7.132.96.397.27.266.4.585.4.96zm5.428 0c0 .375-.132.694-.397.96-.265.265-.585.397-.96.397-.374 0-.694-.132-.96-.397-.264-.266-.397-.585-.397-.96s.133-.694.398-.96c.265-.265.585-.397.96-.397.374 0 .694.132.96.397.264.266.396.585.396.96zm2.715 2.714c0-.92-.19-1.797-.55-2.634-.36-.838-.85-1.56-1.45-2.163-.61-.605-1.33-1.087-2.17-1.448-.84-.36-1.72-.54-2.64-.54-.92 0-1.8.18-2.64.54-.84.36-1.56.84-2.17 1.44-.61.6-1.09 1.32-1.45 2.16-.36.83-.54 1.71-.54 2.63 0 .92.18 1.79.54 2.63.36.83.85 1.56 1.45 2.16.61.6 1.33 1.08 2.16 1.44.84.36 1.71.54 2.63.54.92 0 1.79-.18 2.63-.54.84-.36 1.56-.85 2.16-1.45.6-.61 1.09-1.33 1.45-2.17.36-.84.54-1.72.54-2.64zm1.35 0c0 1.478-.37 2.84-1.09 4.088-.73 1.247-1.72 2.235-2.97 2.963-1.25.728-2.61 1.092-4.09 1.092s-2.84-.364-4.09-1.092c-1.25-.728-2.24-1.716-2.97-2.963-.73-1.248-1.09-2.61-1.09-4.088 0-1.477.36-2.84 1.09-4.087.73-1.248 1.71-2.235 2.96-2.963 1.24-.73 2.61-1.093 4.08-1.093 1.47 0 2.84.37 4.08 1.1 1.24.73 2.23 1.72 2.96 2.97.73 1.25 1.09 2.61 1.09 4.09z" opacity=".746"/>
    <path fill="#FFF" d="M131 6h149v11H131z"/>
  </g>
</svg>
