<svg xmlns="http://www.w3.org/2000/svg" viewBox="0 0 200 100">
  <defs>
    <filter id="a" width="200%" height="200%" x="-50%" y="-50%" filterUnits="objectBoundingBox">
      <feOffset dy="2" in="SourceAlpha" result="shadowOffsetOuter1"/>
      <feGaussianBlur in="shadowOffsetOuter1" result="shadowBlurOuter1"/>
      <feColorMatrix values="0 0 0 0 0.364705882 0 0 0 0 0.333333333 0 0 0 0 0.62745098 0 0 0 0.7 0" in="shadowBlurOuter1" result="shadowMatrixOuter1"/>
      <feMerge>
        <feMergeNode in="shadowMatrixOuter1"/>
        <feMergeNode in="SourceGraphic"/>
      </feMerge>
    </filter>
  </defs>
  <g fill="none" fill-rule="evenodd">
    <rect width="44" height="44" x="55" y="32" fill="#5D579E" rx="3.36"/>
    <rect width="44" height="44" x="107" y="32" fill="#B163B8" rx="3.36"/>
    <rect width="45.747" height="45" x="1" y="31" stroke="#A4A4A4" stroke-dasharray="3" rx="1.5"/>
    <rect width="44" height="44" x="55" y="30" fill="#847CCE" filter="url(#a)" rx="3.36"/>
    <path stroke="#FFF" stroke-width="1.12" d="M77.278 52v12.81" stroke-linecap="round" stroke-linejoin="round" opacity=".266"/>
    <rect width="44" height="44" x="107" y="30" fill="#E67BF0" rx="3.36"/>
    <text fill="#FFF" opacity=".654" font-family="Redacted Script" font-size="5.04">
      <tspan x="121.228" y="39.456">How am I</tspan> <tspan x="113.932" y="43.936">feeling today?</tspan>
    </text>
    <text fill="#FFF" font-family="Helvetica" font-size="12.992" font-weight="260">
      <tspan x="125.806" y="58.595">0</tspan>
    </text>
    <path stroke="#FFF" stroke-width=".502" d="M141.95 66.203h-25.064" stroke-linecap="round" stroke-linejoin="round" opacity=".493"/>
    <ellipse cx="129.418" cy="65.924" fill="#FFF" rx="3.063" ry="3.063"/>
    <rect width="45.747" height="45" x="141.126" y="26" fill="#C13846" rx="1.5"/>
    <rect width="45.747" height="45" x="141.126" y="24" fill="#F74050" rx="1.5"/>
    <path fill="#FFF" d="M204.228 60.315c-3.697-9.692-13-6.063-26.682-13.368-2.73-1.457-4.535-4.59-7.504-5.46-2.674-.785-5.98-.694-8.32.817-1.852 1.194-2.13 3.956-2.456 6.135-3.11 20.71 21.75 32.5 36.684 41.12 0 0 11.975-19.56 8.278-29.25z"/>
    <path fill="#FFF" d="M69.9 39.158c-.018 0-.03 0-.04-.005-.055-.013-.093-.034-.115-.063-.022-.028-.036-.05-.043-.068-.026-.074-.02-.15.023-.23.042-.078.095-.16.16-.25.02-.025.038-.054.054-.084.01-.03.03-.06.05-.086l.01-.02c-.02.007-.05.017-.08.03-.03.014-.06.034-.1.06-.06.038-.13.085-.19.144l-.21.184-.06.048c-.02.015-.04.03-.05.048-.03.027-.07.04-.11.038-.04-.002-.08-.02-.11-.053-.03-.03-.05-.06-.04-.1 0-.04.02-.07.05-.1l.05-.05c.02-.01.04-.03.05-.04l.24-.21c.08-.06.15-.12.23-.17.08-.04.15-.08.23-.1.08-.02.15-.02.22 0 .06.02.1.04.12.07.02.03.04.06.05.08.03.08.02.16-.02.24-.05.08-.1.17-.17.27l-.02.04c-.01.02-.02.03-.03.04.05-.02.11-.04.19-.07.08-.02.18-.06.29-.11.04-.01.08-.01.12.01.03.02.06.05.07.09.01.04.01.08-.01.12-.02.04-.05.07-.08.09l-.3.1c-.09.03-.16.06-.23.08-.03.02-.06.03-.09.03l-.07.03-.07.02c-.02.01-.03.01-.05.01zm1.864.152c-.04 0-.074-.012-.1-.036-.055-.043-.07-.1-.046-.166 0-.003.012-.044.037-.12.026-.078.055-.166.09-.263.015-.057.03-.107.044-.15l.03-.112-.24.09-.29.11-.32.117c-.11.04-.21.08-.32.116-.04.014-.08.01-.12-.007-.04-.02-.07-.05-.08-.09-.02-.04-.02-.08 0-.12.02-.04.05-.07.09-.09.15-.06.31-.11.47-.17l.44-.17.34-.13.13-.05.04-.01c.01 0 .03 0 .05.01.05 0 .08.03.1.08.02.02.02.06.02.1-.01.04-.01.1-.03.18-.01.04-.03.09-.04.14l-.06.18-.01.03-.01.03c.13-.08.3-.15.49-.23.04-.02.07-.02.11-.01.04.01.06.04.08.08.02.03.02.07.01.11-.02.04-.05.07-.08.08-.12.05-.22.1-.32.15l-.25.12-.23.12c-.02.01-.05.02-.08.02zm1.446.297c-.017 0-.033 0-.05-.003-.017 0-.035-.004-.056-.007-.04-.014-.073-.042-.1-.086-.01-.02-.017-.04-.02-.07-.004-.03 0-.07.012-.13.012-.05.032-.13.06-.23.03-.1.07-.22.12-.38-.078.03-.164.06-.258.1l-.292.11c-.037.02-.075.01-.114 0-.038-.02-.066-.05-.083-.09-.02-.03-.02-.07 0-.11.02-.04.05-.06.09-.08l.31-.11.26-.09.18-.07.07-.03c.03-.01.06-.01.09 0 .04.01.07.04.09.08.01.03.02.06.01.08-.01.03-.01.05-.02.08l-.02.05-.01.06c-.03.06-.05.13-.08.21l-.08.25c-.02.05-.03.09-.04.12l-.03.09c.06-.01.15-.05.27-.11.11-.06.22-.12.34-.2.11-.07.24-.15.37-.24l.08-.05.08-.05c.03-.03.07-.03.11-.03.04.01.07.03.1.07.02.04.03.07.02.11-.01.04-.03.07-.07.1l-.09.06-.09.06-.37.24c-.12.08-.23.14-.34.2-.22.12-.39.17-.52.17zm4.183-.01c-.026 0-.05-.002-.073-.005l-.068-.015c-.06-.017-.102-.052-.126-.106-.03-.06-.03-.14.003-.24.03-.09.08-.22.15-.37.01-.02.02-.05.04-.09l.04-.09c-.05.02-.09.05-.14.09l-.15.12c-.04.03-.07.04-.12.03-.04 0-.08-.02-.1-.05-.03-.03-.04-.07-.03-.11 0-.04.02-.07.05-.1.05-.03.09-.07.14-.11.05-.04.1-.07.16-.1.14-.07.26-.09.38-.05.05.01.09.05.12.1.02.06.02.13-.01.2-.03.08-.08.19-.15.33l-.06.12-.06.12-.02.04-.01.03c.03 0 .08-.01.13-.03s.11-.04.18-.08c.07-.03.15-.08.24-.14.09-.06.19-.13.31-.22.09-.07.17-.15.25-.22l.21-.19c.07-.05.11-.1.15-.14l.06-.05c.04-.05.09-.06.14-.05.03.01.05.02.06.04s.03.04.04.05c.02.05.02.11 0 .17-.02.07-.05.17-.11.3l-.06.13c-.01.05-.03.09-.05.12 0 .02-.01.04-.01.06.04 0 .09-.02.15-.05.05-.03.11-.06.16-.1.05-.04.1-.07.15-.12l.12-.11c.03-.03.07-.04.11-.04.04 0 .07.02.1.05.03.03.04.07.04.11 0 .04-.02.08-.05.11-.08.07-.16.14-.24.2-.08.06-.17.12-.25.16-.09.05-.17.08-.25.1-.09.02-.17.02-.25 0-.06-.02-.1-.05-.12-.1-.02-.05-.03-.1-.02-.15 0-.05.02-.12.05-.21l-.12.1c-.04.03-.08.07-.13.1-.46.37-.824.55-1.08.55zm3.428-.287c-.04 0-.07-.012-.1-.036-.05-.043-.07-.1-.04-.166 0-.003.01-.044.04-.12l.09-.263c.02-.057.03-.107.05-.15l.04-.112-.24.09c-.09.034-.19.07-.29.11l-.31.117c-.1.04-.21.08-.31.116-.03.014-.07.01-.11-.007-.04-.02-.06-.05-.08-.09-.01-.04-.01-.08.01-.12.02-.04.05-.07.09-.09.15-.06.31-.11.47-.17l.45-.17.34-.13.13-.05.05-.01c.02 0 .03 0 .05.01.05 0 .08.03.1.08.02.02.03.06.02.1 0 .04-.01.1-.03.18-.01.04-.02.09-.04.14-.01.05-.03.11-.05.18l-.01.03c0 .01-.01.02-.01.03.14-.08.3-.15.5-.23.04-.02.08-.02.11-.01.04.01.07.04.08.08.02.03.03.07.01.11-.02.04-.04.07-.08.08-.11.05-.22.1-.32.15l-.25.12-.23.12c-.02.01-.04.02-.07.02zm3.94-.152c-.01 0-.03 0-.04-.005-.05-.013-.09-.034-.11-.063-.02-.028-.03-.05-.04-.068-.02-.074-.02-.15.03-.23.04-.078.1-.16.16-.25.02-.025.04-.054.05-.084l.05-.086c.01-.003.01-.01.02-.02-.02.007-.04.017-.07.03-.03.014-.06.034-.1.06-.06.038-.12.085-.19.144l-.2.184-.05.048c-.01.015-.03.03-.05.048-.03.027-.06.04-.1.038-.04-.002-.07-.02-.1-.053-.03-.03-.04-.06-.04-.1.01-.04.02-.07.05-.1l.06-.05c.02-.01.04-.03.06-.04l.24-.21c.08-.06.16-.12.23-.17.08-.04.15-.08.23-.1.08-.02.15-.02.22 0 .06.02.1.04.12.07.02.03.04.06.05.08.03.08.03.16-.02.24-.04.08-.1.17-.16.27-.01.01-.02.02-.02.04-.01.02-.02.03-.03.04.05-.02.11-.04.19-.07.08-.02.18-.06.3-.11.05-.01.09-.01.12.01.04.02.07.05.08.09.02.04.02.08 0 .12-.02.04-.05.07-.08.09l-.29.1c-.08.03-.16.06-.22.08-.03.02-.06.03-.09.03l-.06.03-.06.02c-.02.01-.03.01-.05.01zm-22.15 4.48c-.01 0-.03 0-.04-.005-.05-.013-.09-.034-.11-.063-.02-.028-.03-.05-.04-.068-.02-.074-.02-.15.03-.23.05-.078.1-.16.16-.25.02-.025.04-.054.06-.084l.05-.086c.01-.003.01-.01.02-.02-.02.007-.04.017-.07.03-.03.014-.06.034-.1.06-.06.038-.12.085-.19.144-.07.06-.13.12-.2.184l-.05.048c-.02.015-.03.03-.05.048-.03.027-.06.04-.1.038-.04-.002-.08-.02-.11-.053-.03-.03-.04-.06-.04-.1.01-.04.02-.07.05-.1l.06-.05c.02-.01.04-.03.06-.04l.24-.21c.08-.06.16-.12.24-.17.08-.04.15-.08.23-.1.08-.02.15-.02.22 0 .06.02.1.04.12.07.02.03.04.06.05.08.03.08.02.16-.02.24-.05.08-.1.17-.17.27-.01.01-.02.02-.02.04-.01.02-.02.03-.03.04.05-.02.12-.04.2-.07.08-.02.18-.06.3-.11.05-.01.09-.01.12.01.04.02.06.05.08.09.02.04.02.08 0 .12-.02.04-.04.07-.08.09l-.29.1c-.08.03-.16.06-.22.08-.03.02-.06.03-.09.03l-.06.03-.06.02c-.01.01-.03.01-.05.01zm1.12.44c-.02 0-.05-.003-.07-.006l-.07-.015c-.06-.017-.1-.052-.12-.106-.03-.06-.03-.14.01-.24.03-.09.09-.22.16-.37l.04-.09c.01-.03.03-.06.05-.09-.04.02-.09.05-.14.09l-.15.12c-.03.03-.07.04-.11.03-.04 0-.08-.02-.1-.05-.03-.03-.04-.07-.03-.11.01-.04.03-.07.06-.1l.14-.11c.05-.04.11-.07.16-.1.14-.07.27-.09.38-.05.06.01.1.05.12.1.03.06.03.13 0 .2-.03.08-.07.19-.14.33l-.05.12-.05.12c-.01.01-.01.03-.01.04l-.01.03c.03 0 .08-.01.13-.03.06-.02.12-.04.19-.08.07-.03.15-.08.24-.14.09-.06.2-.13.32-.22l.26-.22.21-.19.15-.14.06-.05c.04-.05.09-.06.14-.05.03.01.05.02.07.04l.04.05c.03.05.03.11.01.17-.02.07-.05.17-.11.3l-.06.13c-.01.05-.03.09-.05.12l-.01.06c.05 0 .1-.02.15-.05.05-.03.11-.06.16-.1.06-.04.11-.07.15-.12.05-.04.09-.08.13-.11.03-.03.07-.04.11-.04.04 0 .08.02.11.05.03.03.04.07.04.11 0 .04-.02.08-.05.11-.07.07-.15.14-.23.2-.08.06-.16.12-.25.16-.08.05-.16.08-.25.1-.08.02-.16.02-.24 0-.05-.02-.09-.05-.12-.1-.02-.05-.02-.1-.02-.15.01-.05.03-.12.06-.21l-.11.1c-.04.03-.08.07-.12.1-.46.37-.82.55-1.08.55zm2.68 0c-.03 0-.05-.003-.07-.006l-.06-.015c-.06-.017-.1-.052-.12-.106-.03-.06-.03-.14 0-.24.03-.09.09-.22.16-.37l.04-.09c.02-.03.03-.06.05-.09-.04.02-.09.05-.14.09l-.15.12c-.03.03-.07.04-.11.03-.04 0-.07-.02-.1-.05-.02-.03-.03-.07-.03-.11.01-.04.03-.07.06-.1.05-.03.1-.07.15-.11.05-.04.11-.07.17-.1.14-.07.26-.09.38-.05.06.01.1.05.12.1.03.06.03.13 0 .2-.03.08-.08.19-.14.33-.01.04-.03.08-.05.12l-.05.12-.01.04-.01.03c.04 0 .08-.01.13-.03.05-.02.11-.04.18-.08.07-.03.15-.08.24-.14.09-.06.2-.13.31-.22l.26-.22.21-.19.15-.14.06-.05c.04-.05.09-.06.15-.05.03.01.05.02.07.04l.04.05c.03.05.03.11.01.17-.02.07-.05.17-.11.3l-.06.13-.05.12-.01.06c.05 0 .1-.02.15-.05.06-.03.11-.06.16-.1.06-.04.11-.07.16-.12l.13-.11c.03-.03.07-.04.11-.04.04 0 .07.02.1.05.03.03.04.07.04.11 0 .04-.02.08-.05.11-.08.07-.16.14-.24.2-.08.06-.16.12-.24.16-.08.05-.17.08-.25.1-.08.02-.17.02-.25 0-.05-.02-.09-.05-.12-.1-.02-.05-.02-.1-.02-.15.01-.05.03-.12.06-.21l-.11.1c-.04.03-.08.07-.12.1-.47.37-.83.55-1.09.55zm3.43-.288c-.04 0-.07-.012-.1-.036-.05-.043-.07-.1-.04-.166 0-.003.01-.044.04-.12l.09-.263.05-.15.04-.112-.24.09c-.09.034-.19.07-.29.11l-.31.117c-.11.04-.21.08-.31.116-.04.014-.07.01-.11-.007-.04-.02-.07-.05-.08-.09-.01-.04-.01-.08.01-.12.02-.04.05-.07.09-.09.16-.06.31-.11.48-.17l.45-.17.34-.13.13-.05.05-.01c.02 0 .03 0 .05.01.05 0 .08.03.1.08.02.02.03.06.02.1 0 .04-.01.1-.03.18-.01.04-.02.09-.04.14-.01.05-.03.11-.05.18l-.01.03-.01.03c.14-.08.3-.15.5-.23.04-.02.08-.02.11-.01.04.01.07.04.08.08.02.03.03.07.01.11-.01.04-.04.07-.08.08l-.32.15-.25.12-.22.12c-.02.01-.04.02-.07.02zm1.49-.152c-.02 0-.03 0-.04-.005-.05-.013-.09-.034-.11-.063-.02-.028-.03-.05-.04-.068-.02-.074-.02-.15.03-.23.04-.078.1-.16.16-.25.02-.025.04-.054.06-.084l.05-.086c.01-.003.01-.01.02-.02-.02.007-.04.017-.07.03-.03.014-.06.034-.1.06-.06.038-.12.085-.19.144-.07.06-.13.12-.21.184-.02.017-.03.033-.05.048-.02.015-.03.03-.05.048-.03.027-.06.04-.1.038-.04-.002-.07-.02-.1-.053-.03-.03-.04-.06-.04-.1 0-.04.02-.07.05-.1l.05-.05c.02-.01.04-.03.06-.04l.24-.21c.08-.06.16-.12.23-.17.08-.04.15-.08.23-.1.08-.02.15-.02.22 0 .06.02.1.04.12.07.03.03.04.06.05.08.03.08.03.16-.02.24-.04.08-.1.17-.16.27l-.02.04c-.01.02-.01.03-.02.04.05-.02.11-.04.19-.07.08-.02.18-.06.3-.11.05-.01.09-.01.12.01.04.02.07.05.08.09.02.04.02.08 0 .12-.02.04-.05.07-.08.09l-.29.1c-.09.03-.16.06-.22.08-.03.02-.06.03-.09.03l-.07.03-.06.02c-.01.01-.03.01-.05.01zm1.87.152c-.04 0-.07-.012-.1-.036-.05-.043-.07-.1-.04-.166l.04-.12.09-.263.05-.15.04-.112-.24.09-.29.11-.31.117c-.1.04-.21.08-.31.116-.04.014-.07.01-.11-.007-.04-.02-.06-.05-.08-.09-.01-.04-.01-.08.01-.12.02-.04.05-.07.09-.09.15-.06.31-.11.47-.17l.45-.17.34-.13.13-.05.05-.01c.02 0 .03 0 .05.01.05 0 .08.03.1.08.02.02.02.06.02.1 0 .04-.01.1-.02.18-.01.04-.02.09-.04.14-.01.05-.03.11-.05.18l-.01.03-.01.03c.13-.08.3-.15.49-.23.04-.02.08-.02.11-.01.04.01.07.04.08.08.02.03.03.07.01.11-.02.04-.04.07-.08.08-.12.05-.22.1-.32.15l-.25.12-.22.12c-.02.01-.04.02-.07.02zm1.48-.152c-.01 0-.03 0-.04-.005-.05-.013-.09-.034-.11-.063-.02-.028-.04-.05-.04-.068-.03-.074-.02-.15.02-.23.04-.078.1-.16.16-.25.02-.025.04-.054.06-.084.02-.03.03-.06.05-.086l.02-.02c-.02.007-.04.017-.07.03-.03.014-.06.034-.1.06-.06.038-.13.085-.19.144l-.2.184-.05.048c-.02.015-.04.03-.05.048-.03.027-.06.04-.11.038-.04-.002-.07-.02-.1-.053-.03-.03-.04-.06-.04-.1.01-.04.02-.07.05-.1l.06-.05c.02-.01.03-.03.05-.04l.24-.21c.08-.06.16-.12.23-.17.08-.04.16-.08.23-.1.08-.02.15-.02.22 0 .06.02.1.04.12.07.03.03.04.06.05.08.03.08.02.16-.02.24-.04.08-.1.17-.17.27l-.02.04c-.01.02-.01.03-.02.04.05-.02.12-.04.19-.07.08-.02.18-.06.29-.11.04-.01.09-.01.12.01.04.02.06.05.08.09.02.04.02.08 0 .12-.02.04-.04.07-.08.09l-.29.1c-.08.03-.16.06-.22.08-.03.02-.06.03-.09.03l-.07.03-.06.02c-.01.01-.03.01-.04.01zm4.94.1c-.02 0-.05-.002-.07-.01-.06-.012-.11-.05-.13-.115-.02-.057-.01-.12.02-.19.03-.072.07-.15.13-.238l.06-.094.05-.08c.01-.01.02-.03.02-.05-.1-.01-.22-.02-.35-.01-.13.01-.28.04-.44.08-.15.04-.31.09-.47.15-.17.06-.34.13-.53.21-.04.02-.07.02-.11 0-.04-.01-.06-.04-.08-.08-.02-.03-.02-.07-.01-.11.02-.04.05-.07.08-.08.19-.08.38-.16.55-.22.17-.06.33-.11.49-.15.41-.1.75-.12 1.01-.05.08.02.13.07.16.14.04.08.03.16-.02.25-.04.09-.09.19-.15.28l-.02.03-.01.04c.08-.01.19-.05.34-.1.15-.05.36-.12.63-.22.04-.01.08-.01.12.01.04.02.07.05.08.09.02.04.02.08 0 .11-.02.04-.05.07-.09.09l-.42.14c-.13.05-.24.08-.34.11l-.31.09c-.07.02-.12.03-.16.03zm2.35.052c-.04 0-.08-.012-.1-.036-.05-.043-.07-.1-.04-.166l.04-.12.09-.263.05-.15.04-.112-.24.09-.29.11-.31.117c-.11.04-.21.08-.31.116-.04.014-.08.01-.11-.007-.04-.02-.06-.05-.08-.09-.01-.04-.01-.08.01-.12.02-.04.05-.07.09-.09l.47-.17.45-.17.34-.13.14-.05.05-.01c.02 0 .03 0 .05.01.05 0 .08.03.1.08.02.02.03.06.03.1 0 .04-.01.1-.02.18-.01.04-.02.09-.04.14-.01.05-.03.11-.05.18l-.01.03-.01.03c.13-.08.3-.15.49-.23.04-.02.08-.02.11-.01.04.01.07.04.09.08.02.03.02.07 0 .11-.02.04-.04.07-.08.08l-.32.15-.25.12-.23.12c-.02.01-.05.02-.08.02zm1.21.287c-.02 0-.05-.002-.07-.005l-.07-.015c-.06-.017-.1-.052-.12-.106-.03-.06-.03-.14.01-.24.03-.09.09-.22.16-.37l.04-.09c.02-.03.03-.06.05-.09-.04.02-.09.05-.14.09l-.15.12c-.03.03-.07.04-.11.03-.04 0-.08-.02-.1-.05-.02-.03-.03-.07-.03-.11.01-.04.03-.07.06-.1.05-.03.1-.07.15-.11.05-.04.1-.07.16-.1.14-.07.27-.09.38-.05.05.01.09.05.12.1.03.06.03.13 0 .2-.03.08-.08.19-.14.33l-.05.12-.05.12-.01.04-.01.03c.04 0 .08-.01.13-.03.06-.02.12-.04.19-.08.07-.03.15-.08.24-.14.09-.06.19-.13.31-.22.09-.07.17-.15.25-.22l.21-.19.15-.14.06-.05c.04-.05.09-.06.15-.05.02.01.05.02.06.04.02.02.03.04.04.05.03.05.03.11.01.17-.02.07-.06.17-.11.3l-.06.13-.05.12-.02.06c.05 0 .1-.02.15-.05.06-.03.11-.06.16-.1.06-.04.11-.07.15-.12.05-.04.09-.08.13-.11.04-.03.07-.04.11-.04.04 0 .08.02.11.05.02.03.04.07.03.11 0 .04-.02.08-.05.11-.08.07-.16.14-.24.2-.08.06-.16.12-.24.16-.08.05-.17.08-.25.1-.08.02-.17.02-.25 0-.05-.02-.09-.05-.12-.1-.02-.05-.02-.1-.02-.15.01-.05.03-.12.06-.21l-.11.1c-.04.03-.08.07-.12.1-.46.37-.82.55-1.08.55zm2.68 0c-.02 0-.05-.002-.07-.005l-.07-.015c-.06-.017-.1-.052-.12-.106-.03-.06-.03-.14.01-.24.03-.09.09-.22.16-.37l.04-.09c.02-.03.03-.06.05-.09-.04.02-.09.05-.14.09l-.14.12c-.03.03-.07.04-.11.03-.04 0-.07-.02-.1-.05-.03-.03-.04-.07-.03-.11.01-.04.03-.07.06-.1.05-.03.1-.07.15-.11.05-.04.11-.07.16-.1.14-.07.27-.09.38-.05.05.01.1.05.12.1.03.06.03.13 0 .2-.03.08-.07.19-.14.33l-.05.12-.05.12-.02.04-.01.03c.03 0 .08-.01.13-.03s.11-.04.18-.08c.07-.03.15-.08.24-.14.09-.06.19-.13.31-.22l.26-.22.21-.19.15-.14.06-.05c.04-.05.09-.06.15-.05.03.01.05.02.07.04l.04.05c.02.05.02.11 0 .17-.02.07-.06.17-.11.3l-.06.13-.05.12-.01.06c.05 0 .1-.02.15-.05.05-.03.11-.06.16-.1.06-.04.11-.07.15-.12l.13-.11c.03-.03.07-.04.11-.04.04 0 .07.02.1.05.03.03.04.07.04.11 0 .04-.02.08-.05.11-.07.07-.15.14-.23.2-.08.06-.16.12-.24.16-.08.05-.16.08-.25.1-.08.02-.16.02-.24 0-.05-.02-.09-.05-.12-.1-.02-.05-.03-.1-.02-.15.01-.05.03-.12.06-.21-.03.04-.07.07-.11.1-.04.03-.08.07-.12.1-.47.37-.83.55-1.09.55zm2.92.01c-.01 0-.03 0-.05-.003-.01 0-.03-.004-.05-.007-.04-.014-.07-.042-.1-.086-.01-.02-.01-.04-.02-.07 0-.03 0-.07.02-.13.01-.05.03-.13.06-.23s.07-.22.12-.38c-.08.03-.16.06-.26.1l-.29.11c-.03.02-.07.01-.11 0-.04-.02-.07-.05-.08-.09-.01-.03-.01-.07.01-.11.02-.04.05-.06.09-.08.1-.04.21-.08.31-.11l.27-.09.19-.07.07-.03c.04-.01.07-.01.1 0 .05.01.08.04.1.08.02.03.02.06.02.08l-.02.08c-.01.02-.01.03-.02.05l-.01.06c-.02.06-.05.13-.07.21-.02.08-.05.17-.08.25-.01.05-.03.09-.04.12l-.02.09c.07-.01.16-.05.28-.11.1-.06.22-.12.33-.2.12-.07.24-.15.37-.24l.08-.05.08-.05c.04-.03.08-.03.12-.03.04.01.07.03.1.07.02.04.03.07.02.11-.01.04-.03.07-.07.1l-.08.06-.09.06-.37.24c-.12.08-.23.14-.34.2-.22.12-.39.17-.52.17zm1.74-.01c-.02 0-.05-.002-.07-.005l-.07-.015c-.06-.017-.1-.052-.12-.106-.03-.06-.03-.14.01-.24.03-.09.08-.22.16-.37l.04-.09c.01-.03.03-.06.04-.09-.04.02-.09.05-.14.09l-.15.12c-.03.03-.07.04-.11.03-.04 0-.07-.02-.1-.05-.03-.03-.04-.07-.03-.11.01-.04.03-.07.06-.1.05-.03.1-.07.15-.11.05-.04.11-.07.16-.1.14-.07.27-.09.38-.05.06.01.1.05.12.1.03.06.03.13 0 .2-.03.08-.07.19-.14.33l-.05.12-.05.12-.02.04-.01.03c.03 0 .07-.01.13-.03.05-.02.11-.04.18-.08.07-.03.15-.08.24-.14.09-.06.19-.13.31-.22.09-.07.17-.15.26-.22l.22-.19.15-.14.06-.05c.04-.05.09-.06.15-.05.03.01.05.02.07.04.01.02.03.04.04.05.02.05.02.11 0 .17-.02.07-.05.17-.11.3l-.06.13c-.01.05-.03.09-.05.12l-.01.06c.05 0 .1-.02.15-.05.05-.03.11-.06.16-.1.06-.04.11-.07.15-.12l.13-.11c.04-.03.07-.04.11-.04.04 0 .08.02.11.05.03.03.04.07.04.11 0 .04-.02.08-.05.11-.08.07-.15.14-.23.2-.08.06-.16.12-.24.16-.08.05-.17.08-.25.1-.08.02-.17.02-.25 0-.06-.02-.09-.05-.12-.1-.02-.05-.02-.1-.01-.15.01-.05.03-.12.06-.21l-.11.1c-.04.03-.08.07-.122.1-.466.37-.827.55-1.086.55z" opacity=".654"/>
    <path fill="#FFF" d="M149.7 36.386c-.035 0-.066-.002-.094-.006-.028-.004-.058-.01-.088-.02-.078-.02-.132-.067-.162-.136-.04-.087-.038-.192.003-.315.04-.13.1-.29.2-.48.02-.04.03-.08.05-.12.01-.05.03-.09.06-.13-.06.02-.12.05-.18.1l-.19.15c-.05.03-.1.04-.15.04-.06-.01-.1-.04-.14-.08-.04-.05-.05-.09-.04-.15.01-.05.03-.1.07-.14.06-.04.12-.09.19-.14.06-.05.13-.09.2-.13.18-.09.34-.11.49-.07.07.01.12.06.15.13s.03.16-.01.26-.1.24-.19.42l-.07.16-.07.15-.02.04-.02.04c.04-.01.1-.02.16-.04.07-.02.14-.06.23-.1.09-.05.19-.11.31-.19s.25-.18.4-.29c.11-.1.22-.19.33-.28l.27-.25c.08-.08.14-.14.19-.18l.07-.07c.06-.07.12-.08.19-.06.04.01.06.02.09.04.02.02.04.04.05.06.03.06.03.13.01.21-.03.08-.08.21-.15.38-.03.05-.05.11-.08.17l-.07.15c-.01.02-.01.04-.02.07.06-.01.12-.03.19-.07.07-.04.14-.09.21-.13.07-.05.14-.1.2-.16l.16-.14c.05-.04.1-.06.15-.05.05 0 .1.02.14.06.03.04.05.09.05.14 0 .06-.03.1-.07.14-.1.09-.2.18-.31.26-.11.08-.21.15-.32.21-.1.06-.21.1-.32.13-.11.02-.21.02-.32-.01-.07-.02-.12-.07-.15-.13-.02-.06-.03-.12-.02-.2.01-.07.03-.16.07-.27l-.15.12-.16.13c-.59.47-1.06.71-1.39.71zm4.42-.37c-.052 0-.095-.015-.13-.046-.07-.056-.09-.127-.06-.214 0-.004.018-.056.05-.156.033-.1.07-.212.114-.338.022-.074.04-.138.06-.192l.044-.146c-.09.035-.195.074-.312.117l-.374.14-.406.16-.403.15c-.048.02-.096.02-.146-.01-.05-.02-.086-.06-.107-.11-.018-.04-.015-.09.01-.14.023-.05.06-.08.113-.1l.608-.22c.21-.08.41-.15.58-.21.18-.06.32-.12.43-.16l.18-.06.06-.01c.02 0 .04 0 .06.01.06.01.11.05.13.11.02.04.03.08.03.14 0 .06-.01.13-.03.23-.01.06-.03.12-.05.19-.02.07-.04.14-.07.23l-.01.05-.01.05c.18-.09.39-.19.64-.3.05-.02.1-.02.15 0 .05.02.08.05.11.1s.03.1.01.15c-.02.05-.06.09-.11.11l-.41.19c-.13.06-.23.12-.32.16l-.29.16c-.03.02-.06.03-.1.03zm1.865.383c-.02 0-.043-.01-.065-.01-.02 0-.045-.01-.07-.01-.053-.02-.096-.06-.13-.11-.014-.03-.023-.06-.027-.1s0-.09.016-.17c.01-.08.04-.18.07-.3s.09-.3.15-.5l-.34.12-.38.14c-.05.02-.1.01-.15-.01-.05-.03-.09-.06-.11-.12-.02-.05-.01-.1.01-.15.02-.05.06-.08.11-.11l.4-.15.34-.13.24-.09.09-.04c.04-.02.08-.02.12-.01.05.01.09.04.12.1.02.04.03.07.02.1l-.03.09c-.01.02-.02.03-.02.05-.01.02-.01.04-.02.07-.03.07-.06.16-.1.27l-.1.32c-.02.06-.04.11-.05.15l-.03.12c.08-.02.2-.07.35-.15.14-.07.28-.16.43-.25.15-.1.31-.2.47-.32l.1-.06c.04-.02.07-.05.1-.07.05-.03.1-.04.15-.03.05.01.09.04.13.08.03.04.04.09.03.14-.01.05-.04.09-.09.12-.04.03-.07.05-.11.07l-.12.07c-.17.11-.33.21-.48.31-.16.1-.3.18-.44.26-.28.15-.51.22-.67.22zm3.198-.39c-.052 0-.095-.02-.13-.05-.07-.06-.088-.13-.058-.22 0-.01.016-.06.05-.16.03-.1.07-.22.113-.34.02-.08.04-.14.058-.19l.046-.15-.313.11-.38.14-.41.15-.41.15c-.05.01-.1.01-.15-.01-.05-.03-.09-.07-.11-.12-.02-.05-.02-.1.01-.15.02-.05.06-.09.11-.11l.6-.22c.21-.08.4-.15.57-.21l.43-.17.17-.07.06-.01c.02 0 .04 0 .06.01.06.01.1.04.13.1.02.04.03.08.03.13-.01.05-.02.13-.04.23-.02.05-.03.12-.05.18l-.08.23-.01.04c-.01.01-.01.03-.01.05.17-.1.38-.2.63-.3.04-.02.09-.03.14-.01.05.02.08.05.1.1.02.05.03.1 0 .15-.02.05-.06.09-.11.11-.15.06-.29.13-.41.19-.13.06-.24.11-.33.16l-.29.16c-.03.02-.06.03-.1.03zm3.33-.07c-.032 0-.06-.01-.086-.02-.082-.02-.14-.07-.175-.15-.026-.08-.02-.16.02-.25.038-.09.094-.19.168-.31l.075-.12c.024-.04.044-.08.062-.11.012-.02.023-.04.032-.07-.13-.02-.29-.03-.46-.02-.17.01-.37.04-.58.1-.19.05-.39.11-.61.19-.21.07-.44.16-.68.27-.05.02-.1.02-.14 0-.05-.02-.09-.05-.11-.1-.03-.05-.03-.1-.01-.15.02-.05.05-.09.1-.11.25-.11.48-.21.7-.29.22-.08.43-.15.63-.2.53-.14.97-.16 1.3-.07.1.02.17.09.21.18.03.1.03.21-.03.32-.06.12-.13.24-.2.36-.01.01-.02.02-.02.03l-.02.04c.1-.02.24-.07.44-.13.19-.07.46-.16.8-.29.05-.02.1-.02.15.01.05.02.08.06.1.11.02.05.02.09 0 .14-.02.05-.06.08-.12.11l-.55.19c-.16.06-.31.1-.44.14-.18.05-.31.09-.4.11-.09.02-.16.03-.21.03zm6.986 0c-.03 0-.06-.01-.09-.02-.09-.02-.14-.07-.18-.15-.03-.08-.02-.16.02-.25s.09-.19.17-.31l.07-.12.06-.11c.01-.02.02-.04.03-.07-.13-.02-.28-.03-.45-.02-.17.01-.37.04-.58.1-.19.05-.4.11-.61.19-.22.07-.44.16-.68.27-.05.02-.1.02-.15 0-.05-.02-.09-.05-.11-.1-.03-.05-.03-.1-.01-.15.02-.05.05-.09.1-.11.24-.11.48-.21.69-.29.22-.08.43-.15.63-.2.53-.14.96-.16 1.3-.07.1.02.17.09.21.18.04.1.03.21-.03.32-.06.12-.13.24-.2.36l-.03.03-.03.04c.1-.02.24-.07.44-.13s.46-.16.81-.29c.04-.02.09-.02.14.01.05.02.08.06.1.11.02.05.02.09 0 .14-.02.05-.06.08-.12.11l-.55.19c-.16.06-.31.1-.44.14-.18.05-.31.09-.4.11-.09.02-.16.03-.2.03zm2.41-.13c-.02 0-.04 0-.06-.01-.07-.02-.12-.05-.15-.08-.03-.04-.05-.07-.06-.09-.04-.1-.03-.19.03-.3.05-.11.12-.21.2-.33.02-.04.05-.07.07-.11.02-.04.04-.08.06-.11l.02-.03-.1.04s-.08.04-.13.08c-.08.05-.16.11-.25.18-.09.08-.18.15-.27.24-.02.02-.04.04-.07.06l-.07.06c-.04.03-.09.05-.14.05-.06-.01-.1-.03-.14-.07-.04-.04-.06-.09-.05-.14 0-.06.02-.1.06-.14l.07-.06.07-.06.31-.27c.1-.08.2-.16.3-.22.1-.06.19-.11.29-.13.1-.03.19-.03.28 0 .07.02.12.05.15.09.04.04.05.07.06.1.04.1.03.2-.02.31-.06.1-.13.22-.21.34-.01.01-.02.02-.03.04-.01.02-.02.04-.04.06l.25-.1s.23-.08.38-.15c.06-.02.11-.02.16.01s.08.06.1.11c.02.05.02.1-.01.15-.02.05-.06.08-.11.1l-.37.13-.29.1-.12.04-.09.03-.09.02c-.02.01-.04.01-.06.01zm2.4.19c-.05 0-.1-.02-.13-.05-.07-.06-.09-.13-.06-.22l.05-.16c.03-.1.07-.22.11-.34.02-.08.04-.14.05-.19l.04-.15-.31.11-.38.14-.41.15-.41.15c-.05.01-.1.01-.15-.01-.05-.03-.09-.06-.11-.12-.02-.05-.02-.1.01-.15.02-.05.06-.09.11-.11l.6-.22c.21-.08.4-.15.57-.22l.43-.16.17-.07c.02-.01.04-.01.06-.01.02-.01.04 0 .06.01.06.01.1.04.13.1.02.03.03.08.03.13-.01.05-.02.13-.04.23-.02.06-.03.12-.05.19l-.08.23-.02.04c0 .01-.01.03-.01.04.17-.1.39-.2.64-.3.04-.02.09-.02.14 0 .04.02.08.05.1.1.02.04.03.09 0 .15-.02.05-.05.09-.1.11-.15.06-.28.12-.41.19-.12.06-.23.11-.32.16l-.29.15c-.03.02-.06.03-.1.03zm1.56.37c-.04 0-.07 0-.1-.01s-.06-.01-.09-.02c-.08-.02-.14-.07-.17-.14-.04-.09-.04-.2 0-.32.04-.13.11-.29.2-.48l.05-.12c.01-.04.03-.08.06-.12-.06.02-.12.05-.18.1l-.19.15c-.05.03-.1.05-.15.04-.06-.01-.1-.03-.14-.07-.04-.05-.05-.09-.04-.15.01-.05.03-.1.07-.14.06-.04.12-.09.19-.14.06-.05.13-.1.2-.13.18-.09.34-.12.49-.07.07.01.12.05.15.13.03.07.03.16-.01.26s-.1.24-.18.42c-.02.05-.05.1-.07.15l-.07.15-.02.04-.02.04c.04-.01.1-.02.16-.04.07-.02.15-.06.24-.1.09-.05.19-.11.31-.19.12-.07.25-.17.4-.29.11-.09.22-.19.33-.28l.27-.24.19-.18.07-.07c.05-.06.11-.08.19-.06.03.01.06.02.08.04.02.02.04.04.05.06.03.06.03.13.01.22-.03.08-.07.21-.14.38l-.08.17-.07.15c0 .02-.01.04-.02.07.06-.01.13-.03.2-.07.07-.04.14-.08.21-.13.07-.05.13-.1.19-.15l.16-.14c.04-.04.09-.06.14-.05.05 0 .09.02.13.06.04.04.05.09.05.14 0 .05-.03.1-.07.14-.1.09-.2.18-.3.26-.1.08-.21.15-.32.21-.1.05-.21.1-.32.12-.11.02-.21.02-.32-.01-.07-.03-.12-.07-.15-.13-.02-.06-.03-.13-.02-.2.01-.07.04-.17.08-.28-.04.04-.09.08-.14.12l-.16.13c-.6.47-1.06.71-1.4.71z" opacity=".6"/>
    <path fill="#FFF" d="M66.906 59.932c-.128.42-.368.76-.72 1.016-.35.257-.745.385-1.186.385-.44 0-.837-.128-1.188-.385-.35-.257-.59-.596-.718-1.016-.028-.087-.02-.17.02-.252.042-.082.108-.137.2-.164.085-.028.17-.02.25.02.083.042.137.108.165.198.08.278.24.503.48.675.23.17.49.25.79.25.29 0 .55-.09.79-.26.23-.18.39-.4.48-.68.03-.09.08-.16.16-.2.08-.04.17-.05.25-.02.08.02.15.08.19.16.04.08.05.16.02.25zm-2.573-2.265c0 .184-.065.34-.195.47-.13.13-.287.196-.47.196-.185 0-.342-.065-.473-.195-.13-.13-.195-.287-.195-.47 0-.185.065-.342.195-.473.13-.13.288-.195.472-.195s.34.065.47.195c.13.13.196.288.196.472zm2.667 0c0 .184-.065.34-.195.47-.13.13-.288.196-.472.196s-.34-.065-.47-.195c-.13-.13-.196-.287-.196-.47 0-.185.065-.342.195-.473.13-.13.287-.195.47-.195.185 0 .342.065.473.195.13.13.195.288.195.472zM68.333 59c0-.45-.088-.883-.265-1.294-.177-.412-.414-.766-.71-1.063-.298-.297-.652-.534-1.064-.71-.41-.178-.843-.266-1.294-.266-.45 0-.883.088-1.294.265-.412.177-.766.414-1.063.71-.297.298-.534.652-.71 1.064-.178.41-.266.843-.266 1.294 0 .45.088.883.265 1.294.177.412.414.766.71 1.063.298.297.652.534 1.064.71.41.178.843.266 1.294.266.45 0 .883-.088 1.294-.265.412-.177.766-.414 1.063-.71.297-.298.534-.652.71-1.064.178-.41.266-.843.266-1.294zM69 59c0 .726-.18 1.395-.536 2.008-.358.613-.843 1.098-1.456 1.456-.613.357-1.282.536-2.008.536s-1.395-.18-2.008-.536c-.613-.358-1.098-.843-1.456-1.456C61.18 60.395 61 59.726 61 59s.18-1.395.536-2.008c.358-.613.843-1.098 1.456-1.456C63.605 55.18 64.274 55 65 55s1.395.18 2.008.536c.613.358 1.098.843 1.456 1.456.357.613.536 1.282.536 2.008zm22.906 1.734c.028.087.02.17-.02.253-.042.082-.106.136-.193.164-.087.03-.172.03-.255-.02-.084-.04-.14-.1-.167-.19-.08-.27-.24-.5-.48-.67-.23-.17-.49-.26-.79-.26-.29 0-.55.09-.79.26-.23.17-.39.4-.48.68-.03.09-.08.16-.16.2-.08.05-.16.05-.25.02-.09-.02-.15-.08-.2-.16-.04-.08-.05-.16-.02-.25.13-.42.37-.75.72-1.01s.75-.39 1.19-.39c.44 0 .84.13 1.19.39s.59.59.72 1.01zm-2.573-3.067c0 .184-.065.34-.195.47-.13.13-.287.196-.47.196-.185 0-.342-.065-.473-.195-.13-.13-.195-.287-.195-.47 0-.185.065-.342.195-.473.13-.13.288-.195.472-.195s.34.065.47.195c.13.13.196.288.196.472zm2.667 0c0 .184-.065.34-.195.47-.13.13-.288.196-.472.196s-.34-.065-.47-.195c-.13-.13-.196-.287-.196-.47 0-.185.065-.342.195-.473.13-.13.287-.195.47-.195.185 0 .342.065.473.195.13.13.195.288.195.472zM93.333 59c0-.45-.088-.883-.265-1.294-.177-.412-.414-.766-.71-1.063-.298-.297-.652-.534-1.064-.71-.41-.178-.843-.266-1.294-.266-.45 0-.883.088-1.294.265-.412.177-.766.414-1.063.71-.297.298-.534.652-.71 1.064-.178.41-.266.843-.266 1.294 0 .45.088.883.265 1.294.177.412.414.766.71 1.063.298.297.652.534 1.064.71.41.178.843.266 1.294.266.45 0 .883-.088 1.294-.265.412-.177.766-.414 1.063-.71.297-.298.534-.652.71-1.064.178-.41.266-.843.266-1.294zM94 59c0 .726-.18 1.395-.536 2.008-.358.613-.843 1.098-1.456 1.456-.613.357-1.282.536-2.008.536s-1.395-.18-2.008-.536c-.613-.358-1.098-.843-1.456-1.456C86.18 60.395 86 59.726 86 59s.18-1.395.536-2.008c.358-.613.843-1.098 1.456-1.456C88.605 55.18 89.274 55 90 55s1.395.18 2.008.536c.613.358 1.098.843 1.456 1.456.357.613.536 1.282.536 2.008z" opacity=".746"/>
    <path stroke="#FFF" stroke-width="2" d="M136.39 30.812c21.81-23.377 16.853 16.8 7.178-21.548m4.34 14.878c-37.563-31.534-76.695-12.51-97.253.198" stroke-linecap="round" stroke-linejoin="round"/>
  </g>
</svg>
