<svg xmlns="http://www.w3.org/2000/svg" viewBox="0 0 300 100">
  <g fill="none" fill-rule="evenodd">
    <rect width="61" height="65" x=".875" y=".518" fill="#74A25F" rx="6"/>
    <rect width="61" height="65" x="120.875" y=".518" fill="#74A25F" rx="6"/>
    <path fill="#90CA77" d="M59.438 16.356v36.318c0 3.317-2.69 6.006-6.007 6.006H9.32c-3.32 0-6.01-2.688-6.01-6.006V16.356h56.126zm120 0v36.318c0 3.317-2.69 6.006-6.007 6.006h-44.11c-3.316 0-6.005-2.688-6.005-6.006V16.356h56.124z"/>
    <rect width="61" height="65" x="237.875" y=".518" fill="#74A25F" rx="6"/>
    <path fill="#90CA77" d="M296.438 52.674c0 3.317-2.69 6.006-6.007 6.006h-44.11c-3.316 0-6.005-2.688-6.005-6.006V26.356h56.125v26.318z"/>
    <text fill="#FFF" font-family="Helvetica" font-size="17">
      <tspan x="19.375" y="35.518">4/5</tspan>
    </text>
    <text fill="#FFF" font-family="Helvetica" font-size="17">
      <tspan x="256.625" y="35.518">3/5</tspan>
    </text>
    <g fill="#FFF">
      <path d="M213 56.324c-5.418-14.138-19.05-8.845-39.103-19.502-4-2.126-6.647-6.695-10.997-7.966-3.92-1.145-8.762-1.012-12.194 1.192-2.713 1.742-3.12 5.772-3.598 8.95-4.556 30.216 31.875 47.414 53.76 59.996"/>
      <path fill-opacity=".741" d="M137.01 54.192c1.49-4.192.998-10.196 0-12.192-.997-1.996-8.98-7.66-8.98-7.66s7.47 0 12.23-6.602C141.64 25.824 128 15.446 128 15.446s14.302 7.906 17.282 6.336c2.98-1.57-1.214-20.32-1.214-20.32s11.712 19.673 14.756 19.172c3.043-.5 6.192-12.088 6.192-12.088l2.954 20.033.03 1.156c-5.536-4.836-12.213-7.524-17.808-6.604-6.41 1.055-10.2 6.067-10.692 13.866-.19 3.01.064 15.5 7.5 17.19-.5-.097-7.5-1.69-9.99 0z" opacity=".549"/>
    </g>
  </g>
</svg>
