<svg xmlns="http://www.w3.org/2000/svg" viewBox="0 0 300 100">
  <g fill="none" fill-rule="evenodd">
    <rect width="79" height="79" x="18" y="5" fill="#B666BE" rx="6"/>
    <path fill="#E67BF0" d="M130 17h149v59H130z"/>
    <path fill="#FFF" d="M130 6h149v11H130z"/>
    <rect width="79" height="79" x="18" fill="#E67BF0" rx="6"/>
    <path fill="#EA91F2" d="M136.5 45h136.367c.276 0 .5-.224.5-.5s-.224-.5-.5-.5H136.5c-.276 0-.5.224-.5.5s.224.5.5.5zM32.208 48h56.737c.276 0 .5-.224.5-.5s-.224-.5-.5-.5H32.208c-.276 0-.5.224-.5.5s.224.5.5.5z"/>
    <path fill="#FFF" d="M255.5 39h12c.828 0 1.5-.672 1.5-1.5s-.672-1.5-1.5-1.5h-12c-.828 0-1.5.672-1.5 1.5s.672 1.5 1.5 1.5zm-20 10h12c.828 0 1.5-.672 1.5-1.5s-.672-1.5-1.5-1.5h-12c-.828 0-1.5.672-1.5 1.5s.672 1.5 1.5 1.5zm-31.573 10h22.246c.83 0 1.5-.672 1.5-1.5s-.67-1.5-1.5-1.5h-22.246c-.83 0-1.5.672-1.5 1.5s.67 1.5 1.5 1.5zM183.5 49h12c.828 0 1.5-.672 1.5-1.5s-.672-1.5-1.5-1.5h-12c-.828 0-1.5.672-1.5 1.5s.672 1.5 1.5 1.5zm-20-20h12c.828 0 1.5-.672 1.5-1.5s-.672-1.5-1.5-1.5h-12c-.828 0-1.5.672-1.5 1.5s.672 1.5 1.5 1.5zm-16 10h12c.828 0 1.5-.672 1.5-1.5s-.672-1.5-1.5-1.5h-12c-.828 0-1.5.672-1.5 1.5s.672 1.5 1.5 1.5zm-67.302.2h4.76c.884 0 1.6-.716 1.6-1.6 0-.884-.716-1.6-1.6-1.6H80.2c-.883 0-1.6.716-1.6 1.6 0 .884.717 1.6 1.6 1.6zm-10 17h4.76c.884 0 1.6-.716 1.6-1.6 0-.884-.716-1.6-1.6-1.6H70.2c-.883 0-1.6.716-1.6 1.6 0 .884.717 1.6 1.6 1.6zm-12-6h4.76c.884 0 1.6-.716 1.6-1.6 0-.884-.716-1.6-1.6-1.6H58.2c-.883 0-1.6.716-1.6 1.6 0 .884.717 1.6 1.6 1.6zm-10 11h4.76c.884 0 1.6-.716 1.6-1.6 0-.884-.716-1.6-1.6-1.6H48.2c-.883 0-1.6.716-1.6 1.6 0 .884.717 1.6 1.6 1.6zm-10-22h4.76c.884 0 1.6-.716 1.6-1.6 0-.884-.716-1.6-1.6-1.6H38.2c-.883 0-1.6.716-1.6 1.6 0 .884.717 1.6 1.6 1.6zm-9 3h4.76c.884 0 1.6-.716 1.6-1.6 0-.884-.716-1.6-1.6-1.6H29.2c-.883 0-1.6.716-1.6 1.6 0 .884.717 1.6 1.6 1.6zm103.784-17.28v-.69c.65-.064 1.105-.17 1.362-.318.257-.15.45-.5.576-1.055h.71V30h-.96v-5.08h-1.688zm9.51-.946c.322.59.482 1.4.482 2.43 0 .975-.145 1.78-.435 2.42-.43.914-1.11 1.37-2.07 1.37-.86 0-1.51-.373-1.93-1.12-.35-.625-.53-1.463-.53-2.515 0-.82.1-1.52.31-2.1.39-1.09 1.1-1.64 2.14-1.64.92 0 1.6.38 2.01 1.14zm-.905 4.78c.277-.415.416-1.187.416-2.315 0-.82-.1-1.49-.3-2.02-.2-.53-.59-.79-1.168-.79-.53 0-.92.25-1.165.75s-.368 1.23-.368 2.2c0 .73.08 1.32.236 1.76.24.68.65 1.01 1.232 1.01.467 0 .84-.21 1.117-.62zm-.8 35.22c.32.59.48 1.4.48 2.43 0 .975-.143 1.78-.433 2.42-.42.914-1.11 1.37-2.064 1.37-.862 0-1.503-.373-1.924-1.12-.35-.625-.525-1.463-.525-2.515 0-.82.11-1.52.32-2.1.4-1.09 1.11-1.64 2.14-1.64.93 0 1.6.38 2.01 1.14zm-.905 4.78c.277-.415.416-1.187.416-2.315 0-.82-.1-1.49-.3-2.02-.2-.53-.59-.79-1.168-.79-.53 0-.92.25-1.165.75s-.368 1.23-.368 2.2c0 .73.08 1.32.236 1.76.24.68.65 1.01 1.232 1.01.467 0 .84-.21 1.117-.62z"/>
    <path fill="#FFF" d="M44.698 13.47c-.03 0-.054-.004-.072-.01-.096-.024-.163-.06-.203-.113-.04-.05-.064-.09-.076-.12-.048-.133-.035-.27.04-.41.076-.142.17-.29.284-.446.04-.04.07-.09.1-.15l.09-.15c.01 0 .02-.02.03-.03-.03.01-.08.03-.13.06s-.11.06-.17.11c-.1.07-.22.16-.34.26l-.37.33-.09.09-.09.09c-.05.05-.11.07-.19.07-.07 0-.13-.03-.18-.09-.05-.05-.07-.12-.07-.19.01-.08.04-.14.09-.18.03-.03.06-.06.1-.08l.1-.09.43-.37c.14-.11.28-.21.42-.3.14-.08.27-.14.41-.18.14-.04.27-.04.39 0 .11.03.18.08.22.13.04.05.07.1.08.14.06.14.05.28-.03.43-.08.14-.18.3-.3.48-.01.01-.02.03-.04.06-.01.03-.03.05-.05.07.09-.03.21-.08.35-.13.14-.05.32-.12.53-.2.08-.02.15-.02.22.01.07.04.11.09.14.16.03.07.03.13 0 .2s-.08.12-.15.15l-.53.18c-.15.06-.28.1-.39.15l-.15.06-.12.04c-.05.01-.08.02-.11.03-.02.01-.05.02-.08.02zm3.33.27c-.072 0-.132-.022-.18-.064-.096-.078-.123-.177-.08-.297 0-.01.02-.08.066-.22s.098-.3.158-.47l.08-.27.064-.21-.432.16-.517.19-.563.21-.558.2c-.066.02-.133.02-.203-.02s-.118-.09-.148-.16c-.024-.07-.02-.14.013-.21.034-.07.086-.12.158-.15.27-.1.55-.2.84-.31l.798-.3.6-.23.237-.09c.03-.01.06-.01.09-.02s.06 0 .09.01c.09.01.15.06.18.15.03.05.05.11.04.18 0 .07-.02.18-.05.32-.01.08-.04.16-.06.25-.03.09-.06.2-.1.32l-.02.06-.01.06c.24-.13.53-.27.88-.42.07-.03.13-.03.2 0s.12.07.15.14c.04.06.04.13.01.21-.03.07-.08.12-.14.15-.2.09-.39.18-.57.26l-.45.22c-.15.08-.28.15-.4.22-.03.03-.08.04-.13.04zm2.583.53c-.03 0-.06-.002-.09-.005s-.06-.007-.09-.013c-.07-.024-.13-.075-.18-.153-.02-.04-.03-.08-.03-.13 0-.06 0-.13.02-.23.02-.11.06-.25.11-.42.05-.18.12-.41.21-.69-.14.05-.29.1-.46.17l-.52.2c-.07.02-.13.02-.2-.02s-.12-.09-.15-.16c-.02-.07-.02-.14.02-.21.03-.07.08-.12.16-.15l.56-.21.48-.18c.14-.05.25-.1.33-.13l.13-.05c.06-.03.12-.03.17-.01.08.02.14.06.17.13.03.05.04.1.04.14l-.03.13c-.01.02-.02.05-.03.08 0 .03-.01.06-.02.09-.04.1-.09.22-.13.37-.04.14-.09.29-.14.44-.03.08-.05.15-.07.21-.02.06-.03.11-.05.16.12-.02.28-.09.5-.21.19-.1.39-.22.6-.35.21-.13.43-.27.66-.43l.15-.09c.05-.03.1-.06.15-.1.07-.04.13-.05.21-.04.08.02.14.06.18.12.05.06.06.13.04.2-.01.07-.05.12-.12.16-.05.04-.09.07-.15.11l-.15.1c-.23.15-.45.29-.67.43-.21.14-.42.26-.61.36-.39.2-.7.31-.93.31zm7.47-.018c-.04 0-.09-.003-.13-.01-.04-.005-.08-.014-.12-.026-.11-.03-.18-.093-.22-.19-.05-.12-.05-.264.01-.435.06-.17.15-.39.29-.66.03-.05.05-.1.07-.16.03-.06.05-.11.08-.17-.07.03-.16.08-.24.15l-.26.21c-.06.05-.12.07-.2.06-.07-.01-.13-.04-.18-.1-.04-.06-.06-.12-.05-.19.02-.07.05-.13.1-.19.09-.06.17-.12.26-.19s.19-.13.29-.18c.25-.12.47-.16.68-.1.1.02.17.08.22.18.05.11.05.23 0 .36-.05.14-.13.34-.25.59-.03.07-.06.15-.09.22l-.09.21c-.01.03-.02.05-.03.06l-.02.06c.06 0 .14-.02.23-.05.1-.03.2-.08.33-.14.13-.06.27-.15.43-.26.16-.1.35-.24.56-.4.16-.13.32-.26.46-.38s.27-.24.38-.34c.11-.1.2-.19.27-.25l.1-.1c.07-.08.16-.11.26-.08.05.02.09.04.12.07s.06.06.07.09c.05.09.05.19.01.3-.03.12-.1.29-.2.53-.03.08-.07.16-.1.24l-.09.22c0 .03-.01.06-.02.1.09-.01.18-.05.27-.1.1-.05.19-.11.29-.18.1-.07.19-.14.27-.21.09-.08.16-.14.23-.19.06-.05.13-.08.2-.07.07.01.13.04.19.09.05.06.07.13.07.2s-.03.14-.09.19c-.14.13-.28.24-.42.36-.14.11-.29.21-.43.29-.147.08-.295.14-.445.17-.15.03-.293.03-.44 0-.093-.04-.162-.1-.204-.18-.035-.09-.046-.18-.03-.28.015-.1.05-.23.1-.39-.065.06-.132.12-.2.17l-.22.18c-.83.66-1.473.98-1.935.98zm6.12-.513c-.07 0-.13-.03-.18-.07-.09-.08-.12-.18-.08-.3 0-.01.03-.08.07-.22l.16-.47.08-.27.07-.21-.43.16-.51.19-.56.21-.56.2c-.06.02-.13.02-.2-.01-.07-.04-.11-.09-.14-.16-.02-.07-.02-.13.02-.2s.09-.12.16-.15c.27-.1.55-.2.84-.31l.8-.3.6-.23.24-.09.09-.01c.03 0 .06 0 .09.01.09.01.15.06.18.14.03.05.04.11.04.18s-.02.18-.05.32c-.02.08-.04.16-.07.25-.03.1-.06.2-.1.32l-.01.07-.02.06c.24-.13.54-.27.88-.41.07-.03.14-.03.2-.01.07.03.12.07.15.14.04.07.04.13.01.21-.03.07-.08.12-.14.15-.2.09-.39.18-.56.26-.17.08-.32.16-.45.22-.15.08-.29.15-.41.22-.03.03-.08.05-.13.05zm7.02-.27c-.03 0-.05-.01-.07-.01-.09-.03-.16-.06-.2-.12-.04-.05-.06-.09-.07-.12-.04-.14-.03-.27.04-.41.08-.14.17-.29.29-.45.04-.05.07-.1.1-.16s.06-.11.09-.16l.03-.04c-.03.01-.08.03-.13.05s-.11.06-.17.1c-.11.07-.22.15-.34.26-.12.1-.24.21-.37.32l-.09.09-.09.08c-.05.05-.12.07-.19.07-.07-.01-.14-.04-.18-.1-.05-.05-.08-.12-.07-.19.01-.08.04-.14.09-.19.03-.03.06-.06.1-.08l.09-.09c.15-.13.29-.26.43-.38s.28-.22.42-.3c.14-.09.27-.15.4-.19.14-.04.27-.04.39-.01.11.03.18.07.22.12.04.05.07.1.08.14.06.13.05.28-.03.42-.07.14-.17.3-.29.47-.01.01-.03.03-.04.06l-.05.08c.09-.03.2-.08.35-.13.14-.05.32-.12.53-.2.08-.02.15-.02.22.01s.11.08.14.16c.03.06.03.13-.01.2-.03.07-.08.12-.15.15-.19.06-.36.12-.52.18-.16.05-.29.1-.4.14l-.15.06-.12.04c-.05.01-.09.02-.12.03-.03.01-.05.01-.08.01zm-39.55 11c-.03 0-.05-.01-.07-.01-.09-.03-.16-.06-.2-.12-.04-.05-.06-.09-.07-.12-.05-.14-.03-.27.04-.41.08-.14.17-.29.29-.45.04-.05.07-.1.1-.16s.06-.11.09-.16c.01-.01.02-.02.03-.04-.03.01-.08.03-.13.05s-.11.06-.17.1c-.1.07-.22.15-.34.26-.12.1-.24.21-.37.32l-.09.09-.09.08c-.05.05-.12.07-.19.07-.07-.01-.13-.04-.18-.1-.05-.05-.08-.12-.07-.19.01-.08.04-.14.09-.19.03-.03.07-.06.1-.09.04-.03.07-.06.1-.09.15-.13.29-.26.43-.38s.28-.22.42-.3c.14-.09.27-.15.41-.19.14-.04.27-.04.39-.01.1.03.18.07.22.13.04.05.07.1.08.14.06.14.05.28-.03.42-.08.14-.17.3-.29.48-.02.01-.03.03-.04.06l-.05.07c.09-.04.2-.08.34-.13.14-.06.32-.12.53-.21.08-.03.15-.02.22.01.06.03.11.08.13.16.03.06.03.13 0 .2s-.08.12-.15.15l-.52.18c-.16.05-.29.1-.39.14l-.16.06-.12.04c-.05.01-.09.02-.12.03-.02.01-.05.02-.08.02zm2 .78c-.05 0-.09-.01-.13-.01l-.12-.03c-.11-.03-.18-.1-.22-.19-.05-.12-.05-.27.01-.44.06-.17.15-.39.29-.66.03-.05.05-.11.07-.17.03-.06.05-.12.08-.17-.08.03-.16.08-.24.14l-.26.21c-.06.04-.13.06-.2.05-.07-.02-.13-.05-.18-.1-.05-.06-.06-.13-.05-.2.01-.08.05-.14.1-.19.09-.06.17-.13.26-.2s.19-.13.29-.18c.25-.13.47-.16.68-.1.1.02.17.08.22.18.05.1.05.22 0 .36-.05.14-.14.33-.26.58l-.09.21-.09.2-.03.06-.01.05c.06-.01.14-.03.23-.06s.2-.08.32-.14c.12-.07.27-.15.43-.26.16-.11.35-.24.56-.4.17-.14.32-.26.46-.39.15-.13.27-.24.38-.35l.26-.26.1-.1c.07-.08.16-.11.26-.08.05.01.09.03.12.06s.06.06.07.09c.05.08.05.18.01.29-.03.11-.1.29-.19.53-.04.08-.07.15-.1.23-.03.08-.06.15-.09.21 0 .03-.01.07-.02.1.08-.01.17-.04.27-.1.1-.05.19-.11.29-.18.09-.06.18-.13.27-.21.08-.07.16-.14.22-.19.06-.06.13-.08.2-.07.07 0 .13.03.19.09.05.06.07.12.07.19s-.03.136-.09.19c-.14.126-.28.24-.42.355-.14.114-.29.21-.44.29-.14.08-.29.14-.44.17-.15.035-.29.03-.44 0-.1-.03-.16-.09-.21-.18-.04-.08-.05-.17-.03-.27.02-.1.05-.226.11-.38l-.2.17-.22.18c-.83.653-1.48.98-1.94.98zm4.79 0c-.05 0-.09-.01-.13-.01l-.12-.03c-.11-.03-.18-.1-.22-.19-.05-.12-.05-.27.01-.44.06-.17.15-.39.29-.66.03-.05.05-.11.08-.17.03-.06.05-.12.08-.17-.08.03-.16.08-.25.14l-.26.21c-.06.04-.12.06-.2.05-.07-.02-.13-.05-.18-.1-.05-.06-.06-.13-.05-.2.01-.08.05-.14.1-.19.09-.06.17-.13.26-.2s.19-.13.29-.18c.25-.13.47-.16.68-.1.09.02.17.08.21.18.05.1.05.22 0 .36-.05.14-.14.33-.26.58l-.09.21-.09.2-.02.06c-.01.02-.01.04-.02.05.06-.01.14-.03.23-.06s.2-.08.33-.14c.13-.07.27-.15.43-.26.16-.11.35-.24.56-.4.16-.14.31-.26.46-.39.14-.13.27-.24.38-.35.11-.11.2-.19.26-.26l.1-.1c.08-.08.16-.11.26-.08.05.01.09.03.12.06s.06.06.07.09c.04.08.05.18.01.29-.04.11-.1.29-.2.53-.04.08-.07.15-.1.23l-.1.21-.03.1c.08-.01.17-.04.27-.1.09-.05.19-.11.29-.18.1-.06.19-.13.27-.21.09-.07.16-.14.23-.19.06-.06.13-.08.2-.07.08 0 .14.03.19.09.05.06.07.12.07.19s-.03.136-.09.19c-.14.126-.28.24-.42.355-.14.114-.29.21-.44.29-.15.08-.3.14-.45.17-.15.035-.3.03-.44 0-.1-.03-.17-.09-.21-.18-.03-.08-.04-.17-.03-.27s.05-.226.1-.38c-.06.06-.13.115-.2.17-.07.053-.14.113-.22.18-.83.653-1.47.98-1.93.98zm6.12-.52c-.07 0-.13-.02-.18-.07-.09-.08-.12-.18-.08-.3 0-.01.02-.08.07-.22l.16-.47.08-.27c.03-.08.05-.15.07-.21l-.43.16-.51.19-.56.21-.55.2c-.06.02-.13.02-.2-.02-.07-.03-.11-.09-.14-.16-.03-.07-.02-.13.01-.2s.09-.12.16-.15l.85-.31.79-.3.6-.23.24-.09c.03-.01.06-.01.09-.01.02-.01.05 0 .08.01.09.01.15.06.18.14.03.05.05.11.04.18 0 .07-.01.18-.04.32-.02.07-.04.16-.06.25-.03.09-.06.2-.1.32 0 .02-.01.04-.01.06-.01.02-.01.04-.02.06.24-.13.54-.27.88-.41.07-.03.13-.03.2-.01.07.02.12.07.15.14.04.06.04.13.01.2s-.08.12-.14.15c-.2.09-.39.18-.57.26l-.45.23c-.15.07-.28.15-.4.21-.03.03-.08.04-.13.04zm2.65-.27c-.03 0-.05-.01-.07-.01-.09-.03-.16-.06-.2-.12-.04-.05-.06-.09-.08-.12-.04-.14-.03-.27.04-.41.08-.14.17-.29.29-.45.04-.05.07-.1.1-.16s.06-.11.09-.16l.03-.04c-.03.01-.08.03-.13.05s-.11.06-.17.11c-.1.06-.22.15-.34.25-.12.1-.24.21-.37.33-.03.03-.06.06-.09.08-.03.03-.07.06-.1.09-.05.04-.12.07-.19.06-.07 0-.13-.03-.18-.09-.05-.06-.08-.12-.07-.2.01-.08.04-.14.09-.18.03-.03.06-.06.1-.09.04-.03.07-.06.1-.09.15-.13.29-.26.43-.38s.28-.22.42-.3c.14-.09.27-.15.41-.19.14-.04.27-.04.4-.01.1.03.17.07.22.13.04.05.07.1.08.14.06.14.04.28-.03.42-.08.15-.17.31-.29.48-.01.01-.03.03-.04.06-.02.03-.03.06-.05.08.09-.03.21-.08.35-.13.14-.05.31-.12.52-.2.08-.03.15-.02.22.01s.11.08.14.16c.03.07.03.13 0 .2s-.08.12-.15.15l-.52.18c-.16.06-.29.1-.4.15l-.16.06-.12.04c-.05.01-.08.02-.11.03-.02.01-.05.01-.08.01zm3.33.27c-.07 0-.13-.02-.18-.07-.09-.08-.12-.18-.08-.3 0-.01.02-.08.07-.22l.16-.47.08-.27c.03-.08.05-.15.07-.21l-.43.16-.52.19c-.18.07-.37.14-.56.21l-.56.21c-.06.02-.13.02-.2-.02s-.12-.09-.15-.16c-.02-.07-.02-.13.02-.2s.09-.12.16-.15l.85-.31.8-.3.6-.22.24-.09c.03-.01.06-.01.09-.01.03-.01.06 0 .09.01.09.01.14.06.18.14.03.05.04.11.04.18 0 .07-.02.18-.05.32-.02.07-.04.16-.07.25-.02.09-.06.2-.1.32l-.02.06-.01.06c.24-.13.54-.27.89-.41.06-.03.13-.04.19-.01.07.03.12.08.15.14.04.07.04.14.01.21-.03.07-.08.12-.15.15-.21.09-.39.18-.57.26-.17.09-.32.16-.45.23-.15.08-.28.15-.4.22-.04.03-.08.04-.14.04zm2.65-.27c-.03 0-.05-.01-.07-.01-.09-.03-.16-.06-.2-.12-.04-.05-.06-.09-.07-.12-.04-.14-.03-.27.04-.41.08-.14.17-.29.29-.45.04-.05.07-.1.1-.16s.06-.11.09-.16l.03-.04c-.03.01-.08.03-.13.05s-.11.06-.17.11c-.1.06-.22.15-.34.25-.12.1-.24.21-.37.33-.03.03-.06.06-.09.08-.04.03-.07.06-.1.09-.05.04-.11.07-.19.06-.07 0-.13-.03-.18-.09-.05-.06-.08-.12-.07-.2.01-.08.04-.14.1-.18l.09-.09c.04-.03.07-.06.1-.09.15-.13.29-.26.43-.38s.28-.22.42-.3c.14-.09.27-.15.41-.19.14-.04.27-.04.4-.01.1.03.17.07.21.13.05.05.07.1.08.14.06.14.05.28-.03.42-.08.15-.18.31-.3.48-.01.01-.02.03-.04.06l-.05.08c.09-.03.21-.08.35-.13.14-.05.32-.12.53-.2.08-.03.15-.02.22.01s.11.08.14.16c.03.07.03.13 0 .2s-.08.12-.14.15l-.52.18-.39.15-.16.06-.12.04c-.05.01-.09.02-.11.03-.02.01-.05.01-.08.01h-.01zm8.81.18c-.04 0-.08-.01-.11-.02-.11-.03-.19-.09-.24-.21-.03-.1-.02-.22.03-.34.06-.13.14-.27.24-.43l.11-.17c.04-.06.06-.11.09-.16.02-.03.03-.06.04-.09-.18-.03-.39-.04-.62-.03-.24.01-.5.06-.8.14-.26.06-.54.15-.84.26-.29.1-.6.22-.93.37-.06.03-.13.03-.2 0-.06-.03-.11-.08-.14-.14-.03-.07-.04-.14-.01-.21.03-.08.08-.13.15-.16.35-.15.67-.28.97-.4.3-.11.6-.2.88-.27.74-.19 1.34-.22 1.81-.09.14.03.24.12.29.25.06.14.04.29-.04.45-.08.16-.17.33-.28.5-.01.01-.02.03-.03.05l-.03.06c.14-.03.34-.09.61-.18.27-.09.64-.22 1.12-.4.07-.03.14-.02.2.01.07.03.12.08.14.15.03.07.03.13 0 .2s-.08.12-.16.15l-.76.26c-.23.08-.43.14-.61.2-.25.07-.43.12-.55.14-.12.03-.21.04-.28.04zm4.2.09c-.07 0-.13-.02-.18-.07-.09-.08-.12-.18-.08-.3 0-.01.03-.08.07-.22l.16-.47c.03-.1.06-.19.09-.27l.06-.21-.43.16-.52.19-.56.21-.56.21c-.06.02-.13.02-.2-.02-.07-.03-.12-.09-.15-.16-.02-.07-.02-.13.02-.2s.09-.12.16-.15c.27-.1.55-.2.84-.31l.8-.3.6-.22.24-.09c.03-.01.06-.01.09-.01.03-.01.06 0 .09.01.09.01.15.06.18.14.03.05.05.11.04.18 0 .07-.02.18-.05.32-.02.07-.04.16-.06.25s-.06.2-.1.32c0 .02-.01.04-.01.06l-.02.06c.24-.13.54-.27.89-.41.07-.03.13-.04.2-.01s.11.08.14.14c.04.07.04.14.01.21-.03.07-.08.12-.14.15-.2.09-.39.18-.56.26l-.45.23c-.15.08-.28.15-.4.22-.04.03-.08.04-.14.04zm2.17.51c-.05 0-.09-.01-.13-.01l-.12-.03c-.11-.03-.18-.1-.22-.19-.05-.12-.05-.27.01-.44.06-.17.15-.39.29-.66.03-.05.05-.11.07-.17.03-.06.05-.12.08-.17-.08.03-.16.08-.24.14l-.26.21c-.06.05-.13.06-.2.05-.07-.02-.13-.05-.18-.1-.05-.06-.07-.13-.06-.2.01-.07.05-.14.1-.19.09-.06.17-.13.26-.2s.19-.13.29-.18c.25-.13.47-.16.68-.1.1.02.17.08.22.18.05.1.05.22 0 .36-.05.14-.14.33-.26.58l-.09.21-.09.21c-.01.02-.02.04-.02.06l-.01.05c.06-.01.14-.03.23-.06s.2-.08.33-.14c.13-.07.27-.15.43-.26.17-.11.35-.25.56-.41.16-.13.32-.26.46-.39.15-.13.27-.24.38-.34.11-.1.2-.19.26-.25l.1-.1c.07-.09.16-.11.26-.08.05.01.09.03.12.06s.06.06.07.09c.04.08.05.18.01.29-.04.11-.1.29-.2.53-.03.08-.07.15-.1.23l-.1.22-.03.1c.08-.02.17-.05.27-.1l.29-.18c.1-.07.18-.14.27-.21.08-.08.16-.14.22-.19.07-.06.13-.08.2-.07.08 0 .14.03.19.09.05.06.07.12.07.2 0 .07-.03.13-.09.19-.14.12-.28.24-.42.35-.142.11-.29.2-.434.29-.15.08-.3.14-.45.17-.15.03-.3.03-.44-.01-.1-.04-.17-.1-.21-.18-.04-.08-.05-.17-.032-.27.02-.1.05-.23.11-.38-.06.06-.13.11-.2.17-.07.05-.14.11-.22.18-.83.65-1.47.98-1.93.98zm4.79 0c-.04 0-.09-.01-.13-.01l-.12-.03c-.11-.03-.18-.1-.22-.19-.05-.12-.05-.27.01-.44.06-.17.15-.39.29-.66l.07-.17c.03-.06.05-.12.08-.17-.08.03-.16.08-.24.14l-.26.21c-.06.05-.13.06-.2.05-.07-.02-.14-.05-.18-.1-.05-.06-.07-.13-.05-.2.01-.07.05-.14.1-.19.09-.06.17-.13.26-.2s.19-.13.29-.18c.25-.13.47-.16.67-.1.1.02.17.08.22.18.05.1.05.22 0 .36-.05.14-.14.33-.26.58-.03.07-.06.14-.1.21l-.09.21-.02.06c0 .01-.01.03-.02.05.06-.01.14-.03.23-.06s.2-.08.33-.14c.12-.07.26-.15.42-.26.16-.11.35-.25.56-.41.16-.13.31-.26.46-.39.15-.13.27-.24.38-.34.11-.1.2-.19.26-.25l.1-.1c.07-.09.16-.11.26-.08.05.01.09.03.12.06s.05.06.07.09c.04.08.05.18.01.29-.04.11-.1.29-.2.53-.04.08-.07.15-.11.23l-.09.22c0 .03-.01.06-.02.1.08-.02.17-.05.27-.1.09-.06.19-.12.28-.18.1-.07.19-.14.27-.21.09-.08.16-.14.23-.19.06-.06.13-.08.2-.07.07 0 .14.03.19.09.05.06.07.12.07.2 0 .07-.03.13-.09.19-.14.12-.28.24-.424.35-.15.11-.29.2-.44.29-.15.08-.295.14-.446.17-.15.03-.3.03-.44-.01-.1-.04-.17-.1-.21-.18-.04-.08-.05-.17-.03-.27s.05-.23.104-.38c-.067.06-.13.11-.2.17l-.22.18c-.83.65-1.47.98-1.937.98zm5.21.01c-.03 0-.06 0-.09-.01l-.1-.02c-.07-.03-.13-.08-.18-.16-.02-.04-.03-.08-.03-.14 0-.05 0-.13.02-.23s.06-.24.11-.42.12-.41.21-.69c-.14.05-.29.1-.46.17l-.52.2c-.06.02-.13.02-.2-.02s-.11-.09-.14-.16c-.02-.07-.02-.14.01-.21.04-.07.09-.12.16-.15l.56-.21.48-.18c.14-.05.25-.09.33-.13l.13-.05c.06-.03.12-.03.17-.01.08.01.14.06.18.13.03.06.04.11.03.15l-.04.14c-.01.02-.02.05-.02.07l-.03.1c-.04.1-.08.22-.13.37s-.09.29-.14.44l-.07.22-.04.16c.12-.02.28-.09.5-.21.19-.1.39-.22.6-.35.21-.13.43-.28.66-.43l.15-.09c.05-.03.1-.06.14-.1.07-.04.14-.06.21-.04.07.01.13.05.18.12.04.07.06.13.04.2s-.05.13-.12.17c-.05.04-.1.07-.15.11l-.16.11-.66.43c-.21.14-.42.26-.61.36-.39.2-.7.31-.93.31zm3.1-.02c-.05 0-.09-.01-.13-.01l-.12-.03c-.11-.03-.18-.1-.22-.19-.05-.12-.05-.27.01-.44.06-.17.15-.39.29-.66l.07-.17c.03-.06.05-.12.08-.17-.08.03-.16.08-.25.15l-.26.21c-.06.05-.13.06-.2.05-.07-.01-.13-.05-.18-.1-.05-.06-.06-.13-.05-.2.01-.07.05-.14.1-.19.09-.06.17-.13.26-.2s.19-.13.29-.18c.24-.13.47-.16.67-.1.1.02.17.08.22.18.05.1.05.22 0 .36-.05.14-.13.33-.25.58l-.09.21-.09.2-.03.06-.01.05c.06-.01.14-.03.23-.06s.2-.08.33-.14c.13-.07.27-.15.43-.26.17-.11.35-.24.56-.4.16-.13.32-.26.46-.39.15-.13.27-.24.38-.34l.26-.26.1-.1c.07-.08.16-.11.26-.08.05.01.09.03.12.06s.05.06.07.09c.04.08.05.18.01.29-.04.12-.1.29-.2.53l-.1.24c-.03.08-.06.15-.09.21 0 .03-.01.06-.02.1.087-.02.17-.05.27-.1l.29-.18c.1-.07.19-.14.27-.22.09-.07.16-.14.23-.19.06-.05.12-.08.193-.07.07 0 .133.03.19.09.046.06.07.12.065.2-.003.07-.034.13-.094.19-.14.12-.28.24-.42.35-.14.11-.29.21-.43.29-.15.08-.3.14-.45.17-.15.03-.29.03-.44-.01-.09-.04-.16-.1-.207-.18-.04-.09-.05-.18-.03-.28.01-.1.048-.23.1-.38-.064.06-.13.112-.2.17-.07.05-.144.11-.22.18-.83.65-1.475.98-1.94.98z" opacity=".654"/>
  </g>
</svg>
