<svg viewBox="0 0 100 100" version="1.1" xmlns="http://www.w3.org/2000/svg" xmlns:xlink="http://www.w3.org/1999/xlink">
    <g stroke="none" stroke-width="1" fill="none">
        <g class="tap-here--arrow" transform="translate(1.000000, 50.000000)" fill="#FFFFFF">
            <path d="M13.6376237,12.9570197 C12.0723468,21.8177039 9.65180104,27.0369823 6.80131399,29.0928616 C4.83426526,30.5115718 2.7428359,30.1913763 1.66304918,28.8951091 C0.871895865,27.9453418 1.34445316,27.4961744 3.53353909,28.3059881 C7.05193977,29.6075584 12.9431344,33.8457897 21.0599994,41.3736055 C21.2624701,41.5613827 21.5788284,41.5494712 21.7666055,41.3470006 C21.9543827,41.1445299 21.9424712,40.8281716 21.7400006,40.6403945 C13.5343977,33.0302807 7.55165382,28.7261871 3.88049216,27.3681056 C0.846954834,26.245902 -0.65557359,27.6740605 0.894700822,29.5351409 C2.30357003,31.2264666 4.98365399,31.6367844 7.38627976,29.9039196 C10.4935271,27.662855 13.0161489,22.2234759 14.6223763,13.1309803 C14.6704142,12.8590484 14.4889123,12.5996616 14.2169803,12.5516237 C13.9450484,12.5035858 13.6856616,12.6850877 13.6376237,12.9570197 L13.6376237,12.9570197 Z"></path>
            <path d="M5.7189122,30.9642542 C21.2723096,32.8788432 33.9255365,29.6280966 44.142287,22.2525247 C51.7281243,16.7762348 57.2695886,9.70730169 62.0759731,0.893379645 C62.2081788,0.650941495 62.1188178,0.347232624 61.8763796,0.215026897 C61.6339415,0.0828211692 61.3302326,0.172182204 61.1980269,0.414620355 C56.4569388,9.10880222 51.0025042,16.0667164 43.556963,21.4417253 C33.5446737,28.6696946 21.1441502,31.855519 5.8410878,29.9717458 C5.56701415,29.9380079 5.31748361,30.1328385 5.28374575,30.4069122 C5.25000789,30.6809859 5.44483854,30.9305164 5.7189122,30.9642542 L5.7189122,30.9642542 Z"></path>
        </g>
        <g class="tap-here--text" transform="translate(55.000000, 14.000000)" fill="#FFFFFF">
            <path d="M5.31919117,27.3298183 C5.2677627,26.9826762 5.24204847,26.7126767 5.21633423,26.5069629 C5.13919153,25.7098216 5.1134773,25.1183942 5.1134773,24.7198236 C5.1134773,24.5783953 5.1134773,24.3598243 5.13919153,24.0769678 C5.16490577,23.8069683 5.17776288,23.6269687 5.17776288,23.5369689 C5.17776288,23.3569692 5.12633442,23.2026838 5.02347748,23.0483984 C4.90776343,22.9069702 4.77919226,22.8298275 4.62490686,22.8298275 C4.36776452,22.8298275 3.85347985,23.1383983 3.09490996,23.7555399 C2.42633989,24.3083959 1.88634098,24.8355377 1.47491324,25.3369652 C1.62919865,23.8069683 1.95062657,21.7626868 2.46491124,19.1912634 C2.58062529,18.5612647 2.64491087,18.2269796 2.64491087,18.1884083 C2.64491087,18.0341229 2.59348241,17.8798375 2.49062547,17.7255521 C2.38776854,17.5841238 2.25919737,17.5069811 2.1306262,17.5069811 C2.04062638,17.5069811 1.9763408,17.5712667 1.93776945,17.6741236 C1.91205522,17.7384092 1.87348386,17.9055517 1.8220554,18.1884083 L1.57777018,19.6284054 C1.24348514,21.4926873 1.07634262,22.4698282 1.07634262,22.5469709 C0.883485871,23.768397 0.793486053,24.8226806 0.793486053,25.6969645 C0.793486053,25.748393 0.793486053,25.864107 0.80634317,26.0183924 L0.80634317,26.3398203 C0.80634317,26.3655346 0.793486053,26.4426773 0.793486053,26.5712484 C0.76777182,26.6998196 0.76777182,26.7769623 0.76777182,26.8026765 C0.76777182,26.9441048 0.819200287,27.072676 0.934914338,27.2012472 C1.05062839,27.3298183 1.17919956,27.3941039 1.33348496,27.3941039 C1.39777054,27.3941039 1.50062748,27.2269614 1.64205576,26.9183906 C1.71919846,26.7255338 1.80919828,26.5326771 1.91205522,26.3269632 C2.32348295,25.5426791 3.13348131,24.7455379 4.35490741,23.9226824 L4.44490722,26.1983921 C4.47062146,27.0983902 4.70204956,27.5612464 5.12633442,27.5612464 C5.25490558,27.5612464 5.31919117,27.4841037 5.31919117,27.3298183 Z M11.5034643,26.9698191 C11.5034643,26.8669621 11.464893,26.7769623 11.3877503,26.6741054 C11.3106076,26.5841056 11.2334649,26.5326771 11.130608,26.5326771 C11.0663224,26.5326771 10.9248941,26.5455342 10.693466,26.5712484 C10.4491808,26.6226769 10.2691811,26.635534 10.1534671,26.635534 C9.58775395,26.635534 9.18918332,26.3655346 8.93204099,25.8255357 C9.49775413,25.5812504 9.97346745,25.2341083 10.359181,24.7841092 C10.7834658,24.2955388 11.0020368,23.8069683 11.0020368,23.2926837 C11.0020368,22.9583986 10.8734656,22.6626849 10.6420375,22.4055426 C10.3077525,22.0712576 9.98632457,21.8912579 9.66489665,21.8912579 C9.13775486,21.8912579 8.70061289,22.225543 8.35347073,22.8812559 C8.04489993,23.4598262 7.89061453,24.0641107 7.89061453,24.6812523 C7.89061453,24.874109 7.90347164,25.0669658 7.94204299,25.2726796 C7.86490029,25.2855368 7.77490048,25.2855368 7.69775778,25.2855368 C7.47918679,25.2855368 7.2606158,25.2212512 7.04204482,25.0798229 C6.82347383,24.9255375 6.69490267,24.8483948 6.65633131,24.8483948 C6.39918898,24.8483948 6.27061781,24.9898231 6.27061781,25.2726796 C6.27061781,25.4783935 6.42490321,25.6712503 6.74633113,25.8512499 C7.00347347,26.0183924 7.36347274,26.0955351 7.81347183,26.0955351 C7.94204299,26.0955351 8.07061416,26.082678 8.1734711,26.0569638 C8.61061307,27.0083904 9.33061161,27.4841037 10.3334667,27.4841037 C11.1048937,27.4841037 11.5034643,27.3041041 11.5034643,26.9698191 Z M10.2434669,23.3569692 C10.2434669,23.7041114 10.0891815,24.0255393 9.79346781,24.321253 C9.49775413,24.6426809 9.13775486,24.8869661 8.72632712,25.0669658 C8.70061289,24.8869661 8.68775577,24.7069665 8.68775577,24.5526811 C8.68775577,24.1412534 8.77775559,23.7298256 8.95775522,23.3441121 C9.13775486,22.9583986 9.35632584,22.7526847 9.61346818,22.7526847 C9.75489646,22.7526847 9.89632475,22.8169703 10.037753,22.9326844 C10.1663242,23.0612556 10.2434669,23.2026838 10.2434669,23.3569692 Z M16.9805961,22.5469709 C16.967739,22.4055426 16.9163105,22.2641143 16.8134536,22.1355431 C16.6848824,22.006972 16.5563113,21.9426864 16.4277401,21.9426864 C15.9134554,21.9426864 15.4120279,22.1355431 14.9234574,22.5212566 C14.4091727,22.9198273 14.0106021,23.4083977 13.7020313,23.986968 C13.6506029,23.7298256 13.5734602,23.3698264 13.4706032,22.8812559 C13.3677463,22.4183997 13.1748895,22.1741145 12.892033,22.1741145 C12.8277474,22.1741145 12.7763189,22.225543 12.7248904,22.3283999 C12.6606049,22.4312568 12.6348906,22.5212566 12.6348906,22.5983993 C12.6348906,22.8041132 12.6606049,23.0869698 12.7248904,23.4341119 C12.7506047,23.6141116 12.8277474,23.7941112 12.9820328,23.9483966 C13.0591755,24.321253 13.1106039,24.6941094 13.1106039,25.0669658 C13.1106039,25.4012508 13.0720326,25.7612501 13.007747,26.1469636 C12.9434614,26.4683915 12.892033,26.6869625 12.8663187,26.8155337 C12.8663187,26.9955333 12.9177472,27.1369616 13.0206041,27.291247 C13.1234611,27.4455324 13.2391751,27.5355322 13.3806034,27.5355322 C13.5477459,27.5355322 13.6891742,27.0983902 13.8048883,26.2369634 C14.0106021,24.5912525 14.6791722,23.5241118 15.7848842,23.0098271 C15.9391696,23.0612556 16.0163123,23.0869698 16.0420266,23.0869698 C16.1705977,23.0869698 16.3377403,23.0355413 16.5691684,22.9326844 C16.8391678,22.8169703 16.9805961,22.6883992 16.9805961,22.5469709 Z M22.3548709,26.9698191 C22.3548709,26.8669621 22.3162996,26.7769623 22.2391569,26.6741054 C22.1620142,26.5841056 22.0848715,26.5326771 21.9820145,26.5326771 C21.917729,26.5326771 21.7763007,26.5455342 21.5448726,26.5712484 C21.3005874,26.6226769 21.1205877,26.635534 21.0048737,26.635534 C20.4391605,26.635534 20.0405899,26.3655346 19.7834476,25.8255357 C20.3491607,25.5812504 20.824874,25.2341083 21.2105875,24.7841092 C21.6348724,24.2955388 21.8534434,23.8069683 21.8534434,23.2926837 C21.8534434,22.9583986 21.7248722,22.6626849 21.4934441,22.4055426 C21.1591591,22.0712576 20.8377311,21.8912579 20.5163032,21.8912579 C19.9891614,21.8912579 19.5520195,22.225543 19.2048773,22.8812559 C18.8963065,23.4598262 18.7420211,24.0641107 18.7420211,24.6812523 C18.7420211,24.874109 18.7548782,25.0669658 18.7934496,25.2726796 C18.7163069,25.2855368 18.6263071,25.2855368 18.5491644,25.2855368 C18.3305934,25.2855368 18.1120224,25.2212512 17.8934514,25.0798229 C17.6748804,24.9255375 17.5463092,24.8483948 17.5077379,24.8483948 C17.2505956,24.8483948 17.1220244,24.9898231 17.1220244,25.2726796 C17.1220244,25.4783935 17.2763098,25.6712503 17.5977377,25.8512499 C17.85488,26.0183924 18.2148793,26.0955351 18.6648784,26.0955351 C18.7934496,26.0955351 18.9220207,26.082678 19.0248777,26.0569638 C19.4620196,27.0083904 20.1820182,27.4841037 21.1848733,27.4841037 C21.9563003,27.4841037 22.3548709,27.3041041 22.3548709,26.9698191 Z M21.0948735,23.3569692 C21.0948735,23.7041114 20.9405881,24.0255393 20.6448744,24.321253 C20.3491607,24.6426809 19.9891614,24.8869661 19.5777337,25.0669658 C19.5520195,24.8869661 19.5391623,24.7069665 19.5391623,24.5526811 C19.5391623,24.1412534 19.6291622,23.7298256 19.8091618,23.3441121 C19.9891614,22.9583986 20.2077324,22.7526847 20.4648748,22.7526847 C20.606303,22.7526847 20.7477313,22.8169703 20.8891596,22.9326844 C21.0177308,23.0612556 21.0948735,23.2026838 21.0948735,23.3569692 Z M26.109149,18.6384074 C26.109149,18.3684079 25.993435,18.2269796 25.774864,18.2269796 C25.6205786,18.2269796 25.4534361,18.3298366 25.2734364,18.5098362 C25.1705795,18.7284072 25.119151,18.8955497 25.0934368,19.0241209 C25.0677226,19.152692 25.0548655,19.2298347 25.0548655,19.255549 C25.0548655,19.3326917 25.0677226,19.4098344 25.0934368,19.47412 C24.9648656,20.14269 24.8491516,20.8884028 24.7720089,21.6855441 C24.7334375,22.122686 24.6948662,22.7526847 24.6562948,23.6012545 C24.6177235,24.2826816 24.6048664,24.655538 24.6048664,24.7326807 C24.6048664,24.9898231 24.7205804,25.1183942 24.9648656,25.1183942 C25.1962937,25.1183942 25.3248649,24.976966 25.3505791,24.6683952 C25.3634363,24.2569674 25.4148647,23.4983975 25.5048645,22.3926855 C25.5820072,21.2998306 25.7620069,20.1812614 26.0320063,19.0498351 C26.0834348,18.8312641 26.109149,18.6898358 26.109149,18.6384074 Z M25.5048645,27.2012472 C25.5048645,26.8283908 25.3891505,26.5969627 25.1834366,26.5069629 C25.0805797,26.4426773 25.003437,26.4041059 24.9262943,26.4041059 C24.5405808,26.4041059 24.3348669,26.5969627 24.3091527,26.9826762 C24.3091527,27.0983902 24.3091527,27.18839 24.3348669,27.2526756 C24.3605812,27.3555326 24.4248667,27.4455324 24.5534379,27.509818 C24.6562948,27.6769605 24.7977231,27.7669603 24.9777228,27.7669603 C25.3248649,27.7669603 25.5048645,27.5741036 25.5048645,27.2012472 Z"></path>
            <path d="M15.2097015,0.576676949 C15.158273,0.319534613 15.0682732,0.190963445 14.939702,0.165249211 C13.8082757,0.396677314 12.9339918,0.589534066 12.3168502,0.743819467 C10.3239971,1.23238991 8.81971442,1.57953206 7.8040022,1.81096016 C7.58543121,1.86238863 7.48257428,2.01667403 7.48257428,2.27381637 C7.48257428,2.5309587 7.59828833,2.64667275 7.84257355,2.64667275 C8.27971552,2.55667294 8.67828614,2.46667312 9.01257117,2.3766733 C9.68114125,2.2223879 10.3368542,2.0681025 11.0054243,1.90095998 C10.8511389,3.94524155 10.7868533,5.41095287 10.7868533,6.31095104 C10.7868533,7.89237641 10.8382818,9.22951656 10.9668529,10.3223715 C10.9925672,10.5537996 11.1339954,10.6695136 11.4039949,10.6952279 C11.6611372,10.6180852 11.7897084,10.3738 11.7897084,9.96237221 L11.7897084,9.25523079 C11.7897084,9.04951692 11.7254228,8.8823744 11.6097088,8.75380323 C11.5711374,8.23951856 11.5582803,7.63523407 11.5582803,6.94094977 C11.5582803,5.39809575 11.635423,3.64952786 11.8025655,1.70810323 L13.4611336,1.28381837 C13.5511334,1.36096107 13.6797046,1.41238954 13.8468471,1.42524666 L14.9268449,0.97524757 C15.1068445,0.910961986 15.2097015,0.782390818 15.2097015,0.576676949 Z M19.9925489,6.966664 C19.9925489,6.87666418 19.9411205,6.76095013 19.8382635,6.63237896 C19.8382635,6.31095104 19.7868351,6.01523736 19.6839781,5.75809502 C19.7096924,5.6680952 19.7225495,5.60380962 19.7225495,5.57809538 C19.7225495,5.4366671 19.6454068,5.30809593 19.5168356,5.19238188 C19.3754073,5.08952495 19.233979,5.02523936 19.1054079,5.02523936 C18.5139805,5.02523936 17.8068391,5.41095287 16.9582694,6.18237987 C16.6882699,6.43952221 16.4954132,6.64523608 16.3925562,6.77380725 C15.8525573,7.44237732 15.595415,8.05951893 15.595415,8.6509463 C15.595415,9.02380269 15.711129,9.35808772 15.9554142,9.64094429 C16.1996995,9.97522933 16.4954132,10.1295147 16.8425553,10.1295147 C17.4982683,10.1295147 18.1796955,9.70522988 18.8868369,8.85666017 C18.9382653,9.33237349 18.9768367,9.67951564 19.0025509,9.89808663 C19.0411223,10.3095144 19.1825506,10.5280854 19.4396929,10.5280854 C19.7096924,10.5280854 19.8511206,10.3995142 19.8511206,10.155229 C19.8511206,10.1295147 19.7996922,9.93665798 19.7225495,9.55094448 C19.671121,9.34523061 19.6582639,9.12665962 19.6582639,8.90808864 C19.6582639,8.31666126 19.7482637,7.73809101 19.9411205,7.1980921 C19.9668347,7.09523517 19.9925489,7.01809247 19.9925489,6.966664 Z M19.0925507,6.60666473 C19.0925507,7.17237787 18.8354084,7.75094812 18.346838,8.36808973 C17.8582675,8.98523134 17.3825542,9.28094502 16.8939838,9.28094502 C16.5339845,9.28094502 16.366842,9.06237404 16.366842,8.61237495 C16.366842,8.1880901 16.6239843,7.67380542 17.1639832,7.06952093 C17.3696971,6.82523571 17.6396965,6.5809505 17.9739816,6.33666528 C18.3339809,6.06666582 18.6039803,5.92523754 18.7711228,5.92523754 C18.9768367,5.92523754 19.0925507,6.15666564 19.0925507,6.60666473 Z M25.6882517,5.44952422 C25.6882517,4.85809684 25.5596805,4.36952641 25.3025382,3.9838129 C25.0196816,3.54667093 24.6082539,3.31524283 24.0682549,3.31524283 C23.3353993,3.31524283 22.756829,3.86809885 22.3325442,4.94809666 C22.0111163,5.78380925 21.8568309,6.6580932 21.8568309,7.55809137 L21.8568309,7.85380506 C21.8568309,7.96951911 21.869688,8.05951893 21.869688,8.13666163 C21.5096887,8.2652328 21.3425462,8.44523243 21.3425462,8.6509463 C21.3425462,8.89523152 21.5225458,9.0366598 21.8954022,9.06237404 C21.8954022,9.31951637 21.9082593,9.52523024 21.9082593,9.69237276 L21.9082593,10.3995142 C21.9082593,11.1195127 21.8568309,11.6466545 21.7796882,11.9809396 C21.6896883,12.3023675 21.651117,12.4823671 21.651117,12.5209385 C21.651117,12.803795 21.7796882,12.9452233 22.0496876,12.9452233 C22.2425444,12.9452233 22.3839726,12.7395094 22.4739725,12.3409388 C22.6282579,11.5437976 22.7054006,10.6566565 22.7054006,9.65380141 C22.7054006,9.37094484 22.6925435,9.06237404 22.6668292,8.728089 C23.6439701,8.36808973 24.3382544,8.00809046 24.7753964,7.62237696 C25.3796809,7.08237805 25.6882517,6.34952239 25.6882517,5.44952422 Z M24.9296818,5.23095323 C24.9296818,5.98952312 24.7111108,6.5809505 24.2868259,7.00523535 C23.9525409,7.32666327 23.3996849,7.62237696 22.6154008,7.89237641 C22.641115,6.41380798 22.8854002,5.32095305 23.3739706,4.62666874 C23.5925416,4.30524082 23.8239697,4.1380983 24.0682549,4.1380983 C24.3253973,4.1380983 24.5311112,4.25381235 24.6982537,4.48524046 C24.8525391,4.71666856 24.9296818,4.97381089 24.9296818,5.23095323 Z"></path>
        </g>
    </g>
</svg>
