<svg class="binary-ico" version="1.1" xmlns="http://www.w3.org/2000/svg" xmlns:xlink="http://www.w3.org/1999/xlink"
    x="0px" y="0px"  viewBox="0 0 100 100" enable-background="new 0 0 100 100" xml:space="preserve">
    <path class="contain-punch" fill="#A2A2A2" d="M0,18.1817261 C0,8.14023603 8.14102015,0 18.1817261,0 L81.8182739,0 C91.859764,0 100,8.14102015 100,18.1817261 L100,81.8182739 C100,91.859764 91.8589799,100 81.8182739,100 L18.1817261,100 C8.14023603,100 0,91.8589799 0,81.8182739 L0,18.1817261 Z M18,50 C18,48.3431458 19.3473186,47 21.0000191,47 L44.9999809,47 C46.6568457,47 48,48.3465171 48,50 C48,51.6568542 46.6526814,53 44.9999809,53 L21.0000191,53 C19.3431543,53 18,51.6534829 18,50 Z M54,50 C54,48.3431458 55.3473186,47 57.0000191,47 L80.9999809,47 C82.6568457,47 84,48.3465171 84,50 C84,51.6568542 82.6526814,53 80.9999809,53 L57.0000191,53 C55.3431543,53 54,51.6534829 54,50 Z"></path>
    <path class="line-left" fill="#FFFFFF" d="M21.030303,47 C19.3567129,47 18,48.3567129 18,50.030303 C18,51.7038932 19.3567129,53.0606061 21.030303,53.0606061 L45.030303,53.0606061 C46.7038932,53.0606061 48.0606061,51.7038932 48.0606061,50.030303 C48.0606061,48.3567129 46.7038932,47 45.030303,47 L21.030303,47 Z"></path>
    <path class="line-right" fill="#FFFFFF" d="M57.030303,47 C55.3567129,47 54,48.3567129 54,50.030303 C54,51.7038932 55.3567129,53.0606061 57.030303,53.0606061 L81.030303,53.0606061 C82.7038932,53.0606061 84.0606061,51.7038932 84.0606061,50.030303 C84.0606061,48.3567129 82.7038932,47 81.030303,47 L57.030303,47 Z"></path>
</svg>
