<svg class="count-ico" version="1.1" xmlns="http://www.w3.org/2000/svg" xmlns:xlink="http://www.w3.org/1999/xlink"
    x="0px" y="0px"  viewBox="0 0 100 100" enable-background="new 0 0 100 100" xml:space="preserve">
    <path class="contain-punch" fill="#A2A2A2" d="M52.530303,52.030303 L52.530303,76.5620144 C52.530303,78.2356045 51.1735902,79.5923174 49.5,79.5923174 C47.8264098,79.5923174 46.469697,78.2356045 46.469697,76.5620144 L46.469697,52.030303 L25.0343147,52.030303 C23.3607246,52.030303 22.0040117,50.6735902 22.0040117,49 C22.0040117,47.3264098 23.3607246,45.969697 25.0343147,45.969697 L46.469697,45.969697 L46.469697,24.5277778 C46.469697,22.8541876 47.8264098,21.4974747 49.5,21.4974747 C51.1735902,21.4974747 52.530303,22.8541876 52.530303,24.5277778 L52.530303,45.969697 L75,45.969697 C76.6735902,45.969697 78.030303,47.3264098 78.030303,49 C78.030303,50.6735902 76.6735902,52.030303 75,52.030303 L52.530303,52.030303 Z M0,18.1817261 C0,8.14023603 8.14102015,0 18.1817261,0 L81.8182739,0 C91.859764,0 100,8.14102015 100,18.1817261 L100,81.8182739 C100,91.859764 91.8589799,100 81.8182739,100 L18.1817261,100 C8.14023603,100 0,91.8589799 0,81.8182739 L0,18.1817261 Z"></path>
    <path class="plus" fill="#F7F7F7" d="M52.5262913,51.5328283 L52.5262913,76.0645396 C52.5262913,77.7381298 51.1695785,79.0948427 49.4959883,79.0948427 C47.8223982,79.0948427 46.4656853,77.7381298 46.4656853,76.0645396 L46.4656853,51.5328283 L25.030303,51.5328283 C23.3567129,51.5328283 22,50.1761154 22,48.5025253 C22,46.8289351 23.3567129,45.4722222 25.030303,45.4722222 L46.4656853,45.4722222 L46.4656853,24.030303 C46.4656853,22.3567129 47.8223982,21 49.4959883,21 C51.1695785,21 52.5262913,22.3567129 52.5262913,24.030303 L52.5262913,45.4722222 L74.9959883,45.4722222 C76.6695785,45.4722222 78.0262913,46.8289351 78.0262913,48.5025253 C78.0262913,50.1761154 76.6695785,51.5328283 74.9959883,51.5328283 L52.5262913,51.5328283 Z"></path>
</svg>
