<svg class="icon-um-logo" viewBox="0 0 100 100" version="1.1" xmlns="http://www.w3.org/2000/svg" xmlns:xlink="http://www.w3.org/1999/xlink">
    <path class="icon-bg" d="M9.18392839,0 L90.8160716,0 C95.8882152,0 100,4.10655048 100,9.18392839 L100,90.8160716 C100,95.8882152 95.8934495,100 90.8160716,100 L9.18392839,100 C4.1117848,100 0,95.8934495 0,90.8160716 L0,9.18392839 C0,4.1117848 4.10655048,0 9.18392839,0 Z" fill="#525252"></path>
    <path d="M35.2820125,66.5664018 C33.2106746,68.3814394 30.199606,69.7824159 25.8392674,69.7824159 C13.4598226,69.7824159 11.0733411,59.1094189 11.0733411,59.1094189 L11.0543185,43.4231033 C11.0543185,43.4231033 10.8519862,39.1918104 14.7533658,39.1918104 C18.6547454,39.1918104 17.6067685,41.7926941 17.6067685,41.7926941 L17.6067685,59.4654351 C17.6067685,59.4654351 19.7393269,64.9874307 26.5961396,64.9874307 C33.4529524,64.9874307 34.9240402,58.3770945 34.9240402,58.3770945 L34.9240402,41.2354471 C34.9240402,41.2354471 34.7957819,39.5605003 37.3327155,39.5605003 C39.869649,39.5605003 39.7223681,40.9418666 39.7223681,40.9418666 L39.7223681,41.8755795 C42.0729169,40.6141516 46.211204,39.3136509 50.151987,39.3136509 C55.9317126,39.3136509 62.0941976,43.9228509 62.0941976,43.9228509 C62.0941976,43.9228509 62.7504802,39.5322725 74.183978,39.1851855 C85.6174758,38.8380985 88.3299376,48.4231722 88.3299376,48.4231722 L88.2970803,66.4400114 C88.2970803,66.4400114 87.8050845,69.6291791 85.6341927,69.2676902 C83.463301,68.9062013 83.2448283,67.1719185 83.2448283,67.1719185 L82.5213899,49.5911703 C82.5213899,49.5911703 79.678075,43.4161903 74.1718726,43.4161903 C68.6656703,43.4161903 65.1320626,49.2598831 65.1320626,49.2598831 L65.1320626,66.5664605 C65.1320626,66.5664605 64.4976849,69.6291791 61.9797732,69.6291791 C59.4618616,69.6291791 58.4418422,67.1421606 58.4418422,67.1421606 L58.4418422,49.0464886 C58.4418422,49.0464886 56.0357609,43.7624132 49.8925868,43.7624132 C43.7494127,43.7624132 41.4880191,48.7181157 41.4880191,48.7181157 C41.4880191,48.7181157 41.4880191,65.9019545 41.4880191,67.3228509 C41.4880191,68.7437473 39.6096731,69.6778577 38.4397781,69.6778577 C37.269883,69.6778577 35.2820125,68.0881125 35.2820125,68.0881125 L35.2820125,66.5664018 Z" fill="#D8D8D8"></path>
</svg>
