<svg class="icon-account" viewBox="0 0 100 100" version="1.1" xmlns="http://www.w3.org/2000/svg" xmlns:xlink="http://www.w3.org/1999/xlink">
    <path class="icon-bg" d="M9.18392839,0 L90.8160716,0 C95.8882152,0 100,4.10655048 100,9.18392839 L100,90.8160716 C100,95.8882152 95.8934495,100 90.8160716,100 L9.18392839,100 C4.1117848,100 0,95.8934495 0,90.8160716 L0,9.18392839 C0,4.1117848 4.10655048,0 9.18392839,0 Z" fill="#525252"></path>
    <path d="M49.5049505,43.5643564 C56.0667495,43.5643564 61.3861386,38.2449673 61.3861386,31.6831683 C61.3861386,25.1213693 56.0667495,19.8019802 49.5049505,19.8019802 C42.9431515,19.8019802 37.6237624,25.1213693 37.6237624,31.6831683 C37.6237624,38.2449673 42.9431515,43.5643564 49.5049505,43.5643564 Z" fill="#D8D8D8"></path>
    <path d="M60.1260126,76.1613202 C60.1260126,78.3907278 58.3066565,80.1980198 56.0999247,80.1980198 L41.9198773,80.1980198 C39.6963303,80.1980198 37.8937894,78.3733102 37.8937894,76.1613202 L37.8937894,46.5346535 C40.9387101,48.8314148 44.8038013,50.2052288 49.009901,50.2052288 C53.2160007,50.2052288 57.0810919,48.8314148 60.1260126,46.5346535 L60.1260126,76.1613202 L60.1260126,76.1613202 Z M37.8937894,46.5346535 L37.0606562,46.5346535 C32.9971185,46.5346535 29.7029703,49.8411628 29.7029703,53.9423086 L29.7029703,59.5654707 C29.7029703,63.6566057 32.9979079,66.9731259 37.0606562,66.9731259 L37.8937894,66.9731259 L37.8937894,46.5346535 L37.8937894,46.5346535 Z M60.1260126,46.5346535 L60.9591457,46.5346535 C65.0226835,46.5346535 68.3168317,49.8411628 68.3168317,53.9423086 L68.3168317,59.5654707 C68.3168317,63.6566057 65.021894,66.9731259 60.9591457,66.9731259 L60.1260126,66.9731259 L60.1260126,46.5346535 L60.1260126,46.5346535 Z" fill="#D8D8D8"></path>
</svg>
