<svg class="icon-menu" viewBox="0 0 100 100" version="1.1" xmlns="http://www.w3.org/2000/svg" xmlns:xlink="http://www.w3.org/1999/xlink">
    <path class="icon-bg" d="M9.18392839,0 L90.8160716,0 C95.8882152,0 100,4.10655048 100,9.18392839 L100,90.8160716 C100,95.8882152 95.8934495,100 90.8160716,100 L9.18392839,100 C4.1117848,100 0,95.8934495 0,90.8160716 L0,9.18392839 C0,4.1117848 4.10655048,0 9.18392839,0 Z" fill="#525252"></path>
    <g transform="translate(20.000000, 30.000000)" fill="#D8D8D8">
        <path d="M3.50720302,17 L56.492797,17 C58.4297717,17 60,18.5709366 60,20.5 C60,22.4329966 58.4259862,24 56.492797,24 L3.50720302,24 C1.57022828,24 0,22.4290634 0,20.5 C0,18.5670034 1.57401379,17 3.50720302,17 Z"></path>
        <path d="M3.50720302,0 L56.492797,0 C58.4297717,0 60,1.57093664 60,3.5 C60,5.43299662 58.4259862,7 56.492797,7 L3.50720302,7 C1.57022828,7 0,5.42906336 0,3.5 C0,1.56700338 1.57401379,0 3.50720302,0 Z"></path>
        <path d="M3.50720302,34 L56.492797,34 C58.4297717,34 60,35.5709366 60,37.5 C60,39.4329966 58.4259862,41 56.492797,41 L3.50720302,41 C1.57022828,41 0,39.4290634 0,37.5 C0,35.5670034 1.57401379,34 3.50720302,34 Z"></path>
    </g>
</svg>
