<svg class="ico-quota" version="1.1" xmlns="http://www.w3.org/2000/svg" xmlns:xlink="http://www.w3.org/1999/xlink"
    x="0px" y="0px"  viewBox="0 0 100 100" enable-background="new 0 0 100 100" xml:space="preserve">
    <path class="punch-contain" fill="#A2A2A2" d="M0,18.1817261 C0,8.14023603 8.14102015,0 18.1817261,0 L81.8182739,0 C91.859764,0 100,8.14102015 100,18.1817261 L100,81.8182739 C100,91.859764 91.8589799,100 81.8182739,100 L18.1817261,100 C8.14023603,100 0,91.8589799 0,81.8182739 L0,18.1817261 Z M74.9661625,21.2690455 C75.9830407,19.9398117 75.7298265,18.037912 74.4005926,17.0210338 C73.0713588,16.0041556 71.1694591,16.2573698 70.1525809,17.5866037 L24.0948378,77.7919548 C23.0779596,79.1211886 23.3311738,81.0230883 24.6604077,82.0399665 C25.9896416,83.0568448 27.8915412,82.8036305 28.9084194,81.4743966 L74.9661625,21.2690455 Z"></path>
    <path class="path" fill="#F7F7F7" d="M74.4690581,20.8294364 C75.4625832,19.482658 75.1762147,17.5854672 73.8294364,16.5919422 C72.482658,15.5984172 70.5854672,15.8847856 69.5919422,17.231564 L24.5919422,78.231564 C23.5984172,79.5783423 23.8847856,81.4755331 25.231564,82.4690581 C26.5783423,83.4625832 28.4755331,83.1762147 29.4690581,81.8294364 L74.4690581,20.8294364 Z" transform="translate(49.530500, 49.530500) rotate(1.000000) translate(-49.530500, -49.530500) "></path>
</svg>
