<svg class="slider-ico" version="1.1" xmlns="http://www.w3.org/2000/svg" xmlns:xlink="http://www.w3.org/1999/xlink"
    x="0px" y="0px"  viewBox="0 0 100 100" enable-background="new 0 0 100 100" xml:space="preserve">
    <circle class="punch-circle" fill="#A2A2A2" cx="50" cy="50" r="17"></circle>
    <path class="punch-contain" fill="#A2A2A2" d="M71.7505355,53.0909091 L77.030303,53.0909091 C78.7038932,53.0909091 80.0606061,51.7341962 80.0606061,50.0606061 C80.0606061,48.3870159 78.7038932,47.030303 77.030303,47.030303 L71.8931681,47.030303 C70.6494135,35.7636545 61.0981373,27 49.5,27 C37.9018627,27 28.3505865,35.7636545 27.1068319,47.030303 L22.030303,47.030303 C20.3567129,47.030303 19,48.3870159 19,50.0606061 C19,51.7341962 20.3567129,53.0909091 22.030303,53.0909091 L27.2494645,53.0909091 C28.9564001,63.8421774 38.2684416,72.0606061 49.5,72.0606061 C60.7315584,72.0606061 70.0435999,63.8421774 71.7505355,53.0909091 L71.7505355,53.0909091 Z M0,18.1817261 C0,8.14023603 8.14102015,0 18.1817261,0 L81.8182739,0 C91.859764,0 100,8.14102015 100,18.1817261 L100,81.8182739 C100,91.859764 91.8589799,100 81.8182739,100 L18.1817261,100 C8.14023603,100 0,91.8589799 0,81.8182739 L0,18.1817261 Z"></path>
    <path class="slider-path" fill="#FFFFFF" d="M71.7505355,53.0909091 L77.030303,53.0909091 C78.7038932,53.0909091 80.0606061,51.7341962 80.0606061,50.0606061 C80.0606061,48.3870159 78.7038932,47.030303 77.030303,47.030303 L71.8931681,47.030303 C70.6494135,35.7636545 61.0981373,27 49.5,27 C37.9018627,27 28.3505865,35.7636545 27.1068319,47.030303 L22.030303,47.030303 C20.3567129,47.030303 19,48.3870159 19,50.0606061 C19,51.7341962 20.3567129,53.0909091 22.030303,53.0909091 L27.2494645,53.0909091 C28.9564001,63.8421774 38.2684416,72.0606061 49.5,72.0606061 C60.7315584,72.0606061 70.0435999,63.8421774 71.7505355,53.0909091 Z M33.030303,49.530303 C33.030303,40.4343406 40.4040375,33.0606061 49.5,33.0606061 C58.5959625,33.0606061 65.969697,40.4343406 65.969697,49.530303 C65.969697,58.6262655 58.5959625,66 49.5,66 C40.4040375,66 33.030303,58.6262655 33.030303,49.530303 Z"></path>
</svg>
