<svg class="svg-um-logo" viewBox="0 0 120 120" version="1.1" xmlns="http://www.w3.org/2000/svg">
    <rect class="background" fill="#454647" x="0" y="0" width="120" height="120" rx="10"></rect>
    <path class="foreground" fill="#FFFFFF" d="M60,110 C87.6142375,110 110,87.6142375 110,60 C110,32.3857625 87.6142375,10 60,10 C32.3857625,10 10,32.3857625 10,60 C10,87.6142375 32.3857625,110 60,110 Z" opacity="0.75" fill-opacity="0.15"></path>
    <path class="mark" fill="#15C5EC" d="M47.8984428,70.9584764 L47.8984428,71.4721618 C47.8984428,72.8644677 48.2465141,73.9468263 48.942667,74.71927 C49.63882,75.4917136 50.5209184,75.8779297 51.5889886,75.8779297 C51.6453848,75.8779297 51.7012358,75.8768928 51.7565418,75.874819 C51.8145898,75.8768928 51.8731743,75.8779297 51.9322951,75.8779297 C53.1338742,75.8779297 54.1017984,75.463105 54.8360967,74.6334433 C55.570395,73.8037816 55.9375387,72.57838 55.9375387,70.9572019 L55.9375387,60.4005244 C55.9375387,57.1200228 56.3428271,54.6024663 57.1534162,52.8477794 C57.9640052,51.0930925 59.6471443,50.2157622 62.2028839,50.2157622 C63.4807537,50.2157622 64.4153012,50.5638335 65.0065544,51.2599865 C65.5978076,51.9561394 65.9601831,52.847774 66.0936919,53.9349169 C66.2272007,55.0220599 66.2939541,56.5478517 66.2939541,58.5123381 L66.2939541,70.9572019 C66.2939541,72.5974527 66.6610977,73.8276224 67.395396,74.6477477 C68.1296944,75.4678731 69.0880823,75.8779297 70.2705887,75.8779297 C71.4912405,75.8779297 72.4734689,75.4678731 73.2173036,74.6477477 C73.9611383,73.8276224 74.33305,72.5974527 74.33305,70.9572019 L74.33305,60.5721776 C74.33305,57.234458 74.619136,54.9076255 75.1913165,53.5916104 C75.7062789,52.5616854 76.4262619,51.7415724 77.3512871,51.1312465 C78.2763122,50.5209206 79.2537726,50.2157622 80.2836975,50.2157622 C81.5615673,50.2157622 82.5151872,50.5590654 83.1445858,51.245682 C83.7739843,51.9322986 84.1602004,52.7810203 84.3032455,53.7918725 C84.4462906,54.8027248 84.5178121,56.1473288 84.5178121,57.8257249 L84.5178121,70.9572019 C84.5178121,72.57838 84.894492,73.8037816 85.647863,74.6334433 C86.401234,75.463105 87.3691581,75.8779297 88.5516645,75.8779297 C89.7723163,75.8779297 90.7545447,75.4678731 91.4983794,74.6477477 C92.2422141,73.8276224 92.6141258,72.5974527 92.6141258,70.9572019 L92.6141258,55.7086677 C92.6141258,52.676111 92.2803588,50.4541767 91.6128149,49.0427981 C90.8499076,47.478838 89.6960275,46.277277 88.1511402,45.4380789 C86.6062528,44.5988808 84.7657664,44.1792881 82.6296259,44.1792881 C80.7986483,44.1792881 79.1298135,44.5655041 77.6230715,45.3379478 C76.1163295,46.1103915 74.7049721,47.2976482 73.3889569,48.8997537 C72.4734681,47.3167209 71.3100518,46.1342323 69.8986732,45.3522523 C68.4872947,44.5702722 66.7993875,44.1792881 64.8349011,44.1792881 C62.9467054,44.1792881 61.2301896,44.560736 59.6853023,45.3236434 C58.1404149,46.0865507 56.6909127,47.2785756 55.3367521,48.8997537 L55.3367521,48.1559227 C55.3367521,46.8971256 54.9791447,45.910129 54.2639191,45.1949034 C53.5486934,44.4796778 52.6570588,44.1220703 51.5889886,44.1220703 C51.5514384,44.1220703 51.5141355,44.1225098 51.4770798,44.1233889 C51.4383529,44.1225098 51.3993655,44.1220703 51.3601176,44.1220703 C50.1966839,44.1220703 49.2526002,44.5130545 48.5278382,45.2950345 C47.8030763,46.0770145 47.4407007,47.2404308 47.4407007,48.7853181 L47.4407007,58.2834671 C47.4407007,62.021713 47.2213681,64.4439075 46.7826964,65.5501232 C46.2486613,66.8089203 45.3999396,67.8292936 44.2365059,68.6112736 C43.0730722,69.3932536 41.8333663,69.7842378 40.5173512,69.7842378 C39.1631906,69.7842378 38.0903683,69.4361665 37.2988519,68.7400135 C36.5073355,68.0438606 35.9590041,67.0807045 35.6538412,65.8505164 C35.3486782,64.6203283 35.1960991,63.0993046 35.1960991,61.2873997 L35.1960991,48.7853181 C35.1960991,47.2404308 34.8337235,46.0770145 34.1089615,45.2950345 C33.3841996,44.5130545 32.4305797,44.1220703 31.2480733,44.1220703 C30.0846396,44.1220703 29.1500921,44.5082864 28.4444028,45.28073 C27.7387135,46.0531737 27.3858742,47.2213581 27.3858742,48.7853181 L27.3858742,64.2627235 C27.3858742,67.3715709 27.8722203,69.7556206 28.8449272,71.414944 C29.6650526,72.7881773 30.8237007,73.8657677 32.3209064,74.6477477 C33.8181121,75.4297278 35.5107873,75.8207119 37.398983,75.8207119 C38.9629431,75.8207119 40.3552281,75.6252198 41.5758798,75.2342298 C42.7965316,74.8432398 43.921803,74.2472274 44.9517279,73.4461747 C45.9816528,72.645122 46.9638813,71.6533574 47.8984427,70.470851 L47.8984427,70.9572019 C47.8984427,70.9576268 47.8984428,70.9580516 47.8984428,70.9584764 Z"></path>
</svg>
